<svg width="12" height="9" viewBox="0 0 12 9" fill="none" xmlns="http://www.w3.org/2000/svg">
<path fill-rule="evenodd" clip-rule="evenodd" d="M8.51316 0.452261C8.24146 0.180904 7.87919 0 7.51693 0C7.15466 0 6.7924 0.180904 6.5207 0.452261C5.97731 0.994974 5.97731 1.8995 6.5207 2.44221L7.24523 3.16583H1.35679C0.607454 3.16583 0 3.77328 0 4.52261C0 5.27194 0.607453 5.87939 1.35678 5.87939H7.24523L6.5207 6.60301C5.97731 7.14573 5.97731 8.05025 6.5207 8.59296C7.0641 9.13567 7.96976 9.13567 8.51316 8.59296L11.5924 5.51759C12.1358 4.97487 12.1358 4.07035 11.5924 3.52764L8.51316 0.452261Z" fill="black"/>
</svg>
