<?xml version="1.0" encoding="utf-8"?>
<!-- Generator: Adobe Illustrator 25.2.0, SVG Export Plug-In . SVG Version: 6.00 Build 0)  -->
<svg version="1.1" id="圖層_1" xmlns="http://www.w3.org/2000/svg" xmlns:xlink="http://www.w3.org/1999/xlink" x="0px" y="0px"
	 viewBox="0 0 32 32" style="enable-background:new 0 0 32 32;" xml:space="preserve">
<path d="M29,26.5c-1.3-2.3-3.2-4.2-5.5-5.5c-0.9-0.5-1.9-1-2.9-1.3c2.6-1.6,4.4-4.4,4.4-7.7c0-5-4-9-9-9c-5,0-9,4-9,9
	c0,3.3,1.8,6.2,4.4,7.7c-1,0.3-2,0.7-2.9,1.3c-2.3,1.3-4.2,3.2-5.5,5.5c-0.3,0.5-0.1,1.1,0.4,1.4c0.5,0.3,1.1,0.1,1.4-0.4
	c1.1-2,2.8-3.6,4.8-4.8c3.9-2.3,9.1-2.3,13,0c2,1.1,3.6,2.8,4.8,4.8c0.2,0.3,0.5,0.5,0.9,0.5c0.2,0,0.3,0,0.5-0.1
	C29.1,27.6,29.3,27,29,26.5z M9,12c0-3.9,3.1-7,7-7c3.9,0,7,3.1,7,7s-3.1,7-7,7C12.1,19,9,15.9,9,12z"/>
</svg>
