<?xml version="1.0" encoding="utf-8"?>
<!-- Generator: Adobe Illustrator 25.2.0, SVG Export Plug-In . SVG Version: 6.00 Build 0)  -->
<svg version="1.1" id="圖層_1" xmlns="http://www.w3.org/2000/svg" xmlns:xlink="http://www.w3.org/1999/xlink" x="0px" y="0px"
	 viewBox="0 0 32 32" style="enable-background:new 0 0 32 32;" xml:space="preserve">
<path d="M29.9,25.8l-1.8-16c-0.1-0.5-0.3-0.9-0.7-1.3C27.1,8.2,26.6,8,26.1,8h-4.2c-0.2-1.2-0.8-2.3-1.7-3.2C19.1,3.6,17.6,3,16,3
	c-1.6,0-3.1,0.6-4.2,1.8c-0.9,0.9-1.5,2-1.7,3.2H5.9c-0.5,0-1,0.2-1.3,0.5C4.2,8.8,4,9.3,3.9,9.8l-1.8,16c0,0.3,0,0.6,0.1,0.8
	c0.1,0.3,0.2,0.5,0.4,0.7c0.2,0.2,0.4,0.4,0.7,0.5C3.6,27.9,3.8,28,4.1,28h23.8c0.3,0,0.6-0.1,0.8-0.2c0.3-0.1,0.5-0.3,0.7-0.5
	c0.2-0.2,0.3-0.5,0.4-0.7C29.9,26.3,29.9,26.1,29.9,25.8z M13.2,6.2c1.5-1.5,4.1-1.5,5.7,0c0.5,0.5,0.9,1.1,1,1.8h-7.7
	C12.3,7.3,12.7,6.7,13.2,6.2z M4.1,26l1.8-16H10v3c0,0.6,0.4,1,1,1s1-0.4,1-1v-3h8v3c0,0.6,0.4,1,1,1s1-0.4,1-1v-3h4.1l1.8,16H4.1z"
	/>
</svg>
