<?xml version="1.0" encoding="utf-8"?>
<!-- Generator: Adobe Illustrator 25.2.0, SVG Export Plug-In . SVG Version: 6.00 Build 0)  -->
<svg version="1.1" id="圖層_1" xmlns="http://www.w3.org/2000/svg" xmlns:xlink="http://www.w3.org/1999/xlink" x="0px" y="0px"
	 viewBox="0 0 32 32" style="enable-background:new 0 0 32 32;" xml:space="preserve">
<path d="M17.4,16l8.3-8.3c0.4-0.4,0.4-1,0-1.4s-1-0.4-1.4,0L16,14.6L7.7,6.3c-0.4-0.4-1-0.4-1.4,0s-0.4,1,0,1.4l8.3,8.3l-8.3,8.3
	c-0.4,0.4-0.4,1,0,1.4C6.5,25.9,6.7,26,7,26s0.5-0.1,0.7-0.3l8.3-8.3l8.3,8.3c0.2,0.2,0.5,0.3,0.7,0.3s0.5-0.1,0.7-0.3
	c0.4-0.4,0.4-1,0-1.4L17.4,16z"/>
</svg>
