<svg width="32" height="32" viewBox="0 0 32 32" fill="none" xmlns="http://www.w3.org/2000/svg">
<path d="M4 4L27.625 30" stroke="#747474" stroke-width="2" stroke-linecap="round" stroke-linejoin="round"/>
<rect x="10" y="3" width="10" height="2" rx="1" fill="#747474"/>
<circle cx="11.5" cy="21.5" r="1" stroke="#747474"/>
<circle cx="15.5" cy="22.5" r="1" stroke="#747474"/>
<circle cx="13.5" cy="18.5" r="1" stroke="#747474"/>
<circle cx="18.5" cy="14.5" r="1" stroke="#747474"/>
<path d="M13 4V3H12V4H13ZM17 4H18V3H17V4ZM13 10.5229L13.2213 11.4981L14 11.3214V10.5229H13ZM10.5 11.5039L9.99927 10.6383L9.99927 10.6383L10.5 11.5039ZM17 10.5229H16V11.3214L16.7787 11.4981L17 10.5229ZM13 5H17V3H13V5ZM14 10.5229V4H12V10.5229H14ZM11.0007 12.3696C11.6838 11.9744 12.4304 11.6776 13.2213 11.4981L12.7787 9.54772C11.7881 9.77249 10.8535 10.1442 9.99927 10.6383L11.0007 12.3696ZM7 19.2999C7 16.34 8.60691 13.7543 11.0007 12.3696L9.99927 10.6383C7.01288 12.3659 5 15.5972 5 19.2999H7ZM15 27.2999C10.5817 27.2999 7 23.7182 7 19.2999H5C5 24.8228 9.47715 29.2999 15 29.2999V27.2999ZM23 19.2999C23 23.7182 19.4183 27.2999 15 27.2999V29.2999C20.5228 29.2999 25 24.8228 25 19.2999H23ZM16.7787 11.4981C20.3412 12.3065 23 15.4939 23 19.2999H25C25 14.5396 21.6747 10.5583 17.2213 9.54772L16.7787 11.4981ZM16 4V10.5229H18V4H16Z" fill="#747474"/>
</svg>
