<svg xmlns="http://www.w3.org/2000/svg" viewBox="0 0 1040 1040"><defs><style>.cls-1{fill:#fee2da;}.cls-2{fill:#f8cfc1;}.cls-3{fill:#bacdb3;}.cls-4{fill:#9ab591;}.cls-5{fill:#cbe1f6;}.cls-6{fill:#f2d45d;}.cls-10,.cls-11,.cls-13,.cls-7,.cls-9{fill:none;}.cls-7{stroke:#9ab591;stroke-width:2px;}.cls-10,.cls-11,.cls-7,.cls-9{stroke-linecap:round;}.cls-13,.cls-7{stroke-miterlimit:10;}.cls-8{fill:#fdb7a3;}.cls-10,.cls-11,.cls-13,.cls-9{stroke:#a3b5b7;}.cls-10,.cls-11,.cls-9{stroke-linejoin:round;}.cls-13,.cls-9{stroke-width:8px;}.cls-10{stroke-width:16px;}.cls-11{stroke-width:14px;}.cls-12{fill:#a3b5b7;}.cls-14{fill:#fed4c8;}</style></defs><g id="girl_back" data-name="girl back"><path class="cls-1" d="M501.86,460.12c32.57-6.47,81.37,6.45,90.29,3,35.93-13.93,45.42,0,45.42,0,2.37,8.68-16.73,11.11-37.77,11.11-4.19,0-30.72,8.83-34.67,10.25-28,10-28.65,9.77-55.24,10.35-22.8-12.52-55.12-29.42-66.41-52.85-32.26-67,7-45.81,11-48.63C461.24,388.59,481.4,416.31,501.86,460.12Z"/><path class="cls-2" d="M500.15,692.68l-107.58,61.1L378.46,740s33.58-46.76,65.8-65c21.48-12.16,55.67-31.38,65.42-23.55C525.1,663.81,500.15,692.68,500.15,692.68Z"/><path class="cls-2" d="M397.24,724.47s-18.57,5.76-22.17,13.7,20.72,17.92,20.72,17.92,34.41,30.77,40.43,28.25,8.27-14.33-12.63-31.66C415.27,745.78,397.24,724.47,397.24,724.47Z"/><path class="cls-3" d="M535.18,607.82C477.56,637.9,418.8,691.67,418.8,691.67s43.18,66.91,90.26,72.18c21.42,2.4,40.47-76.14,40.47-76.14l4-24.76-5.6-41.55Z"/><polygon class="cls-3" points="407.52 570.66 524.4 658.97 549.53 606.22 475.21 556.67 407.52 570.66"/></g><g id="flowers"><path class="cls-4" d="M769.91,544.63c33.65-24.78,74.8-64.39,91.12-102.86,2.37-5.58,3.9-13-.73-16.91-20.09-16.22-43,34.94-62.77,60.32C787.86,497.61,771.84,528.5,769.91,544.63Z"/><path class="cls-3" d="M771.82,544.63c-3-54.19,20.27-138.52,56.15-174.4,11.17-11.18,28.73-8.61,25.61,6.88-1.46,7.27-9.06,27.13-10.48,30.16C810,477.58,792.89,500,771.82,544.63Z"/><path class="cls-3" d="M754.87,576.27c-13.26-35.59-34.58-67.61-49.7-102.45s-23.8-75.07-10.4-110.6c1.9-5,5.65-10.77,11-10.07,4.9.63,7.25,6.23,8.6,11C733.58,432,741.36,504.29,754.87,576.27Z"/><path class="cls-3" d="M786.76,552.5c27-27,84.32-43.9,99.85-100.7,1.21-4.42,3.39-9.87-.28-12.61a8.48,8.48,0,0,0-4.14-1.39C870.45,436.46,860,445,852,453.71,822.4,486.35,800.93,509.2,786.76,552.5Z"/><path class="cls-5" d="M679.42,385.67c-22.82-20.32-29.23-42.1-29.23-42.1-.77-5.38-4.93-13.56-1-17.32C650.12,325.38,677.43,353.63,679.42,385.67Z"/><path class="cls-5" d="M773.92,311.68c-6.08-29.94,1.85-51.21,1.85-51.21,2.61-4.77,4.19-13.81,9.59-14.46C786.62,245.86,791.54,284.86,773.92,311.68Z"/><path class="cls-6" d="M796,358.46c31.55-46.57,53.67-79.61,33.79-79.61C816.35,278.85,794.33,340.51,796,358.46Z"/><path class="cls-6" d="M806.34,261.77c24.77-50.49,42.09-86.29,22.4-83.53C815.46,180.11,802.22,244.23,806.34,261.77Z"/><path class="cls-5" d="M650.8,437.15C625.15,420.56,615.47,400,615.47,400c-1.58-5.2-6.94-12.64-3.63-17C612.62,382.05,643.94,405.8,650.8,437.15Z"/><path class="cls-6" d="M647.54,294.47c-35-44-59.64-75.24-39.81-76.77C621.1,216.67,647.8,276.45,647.54,294.47Z"/><path class="cls-6" d="M734.87,348.12c-14.48-24.72-12.29-42.83-13.89-56.39-.56-4.72,1.45-12.76,6.2-12.88,3.61-.09,6.88,2.44,8.71,5.56S738.92,316,734.87,348.12Z"/><path class="cls-5" d="M696.66,338.59c-27.38-49.14-46.55-84-26.74-82.25C683.28,257.51,699.86,320.85,696.66,338.59Z"/><path class="cls-6" d="M860.64,404.56c23.79-16,29.68-33.23,37-44.75,2.55-4,4.23-12.12,0-14.29-3.21-1.65-7.26-.79-10.26,1.22S871,373.88,860.64,404.56Z"/><path class="cls-3" d="M724,558.16c-6-18.35-20.16-32.64-32.7-47.32s-24.4-31.94-24.12-51.25c.09-6.56,3.4-14.64,10-14.62,4.43,0,7.79,3.83,10.42,7.39C712.13,485.7,727.87,525.49,724,558.16Z"/><path class="cls-7" d="M810.6,428.71c-12.05,14.58-39.12,70.87-34.62,115.92"/><path class="cls-7" d="M808.92,481.62c-3.85,8.41-18.7,44.2-16.6,69.32"/><path class="cls-4" d="M755.26,554.72c-3-42.14-.61-69.41,7.5-110.31,4.34-21.86,8.25-38.19,13.81-43.14,9.62-1.86,9.83,11.27,10.32,20.34C789.7,472.75,771.18,521.11,755.26,554.72Z"/><path class="cls-4" d="M745.32,539.1a389.83,389.83,0,0,1-34.45-137.85c-.25-4.18.33-9.55,4.34-10.77,3.42-1.05,6.68,1.85,9.1,4.5,3,3.34,6.12,6.72,8.33,10.67,2.37,4.24,3.66,9,4.83,13.7C747.59,460.27,750.07,503.06,745.32,539.1Z"/><path class="cls-7" d="M694.1,486.67c14.56,20.48,26.62,48.26,33.66,72.78"/><path class="cls-7" d="M688.92,428.29c14.56,20.48,42.4,91.66,48.66,124.21"/><path class="cls-8" d="M734.84,366.26c.51-6.15,6.28-15.89,11.78-12.43,3.76,2.36,5,5.36,6.4,9.38.44-4,7.12-7,11.3-5.82s5.5,5.59,6,9.62c.25-4.85,6.17-8.39,11.28-7.35s4.68,13.95,2.88,18.51c-3.81,9.69-10.82,13-15.49,15.19C749,402.66,733.1,387,734.84,366.26Z"/><path class="cls-8" d="M780.8,464.94c-.27-4.18,2.35-11.25,6.08-9.4,2.54,1.26,3.62,3.17,4.84,5.76-.11-2.76,3.72-5.35,6.41-4.92s3.93,3.28,4.62,6c-.31-3.29,3-6.2,6.25-5.94s4.23,9,3.56,12.21c-1.43,6.86-5.43,9.71-8.11,11.59C793,488.21,781.72,479.07,780.8,464.94Z"/><path class="cls-8" d="M710.8,406.51c-.52-6.15-6.28-15.89-11.79-12.43-3.75,2.36-5,5.37-6.4,9.39-.44-4-7.12-7-11.3-5.83s-5.5,5.6-6,9.63c-.24-4.85-6.17-8.4-11.28-7.35s-4.68,13.95-2.88,18.51c3.82,9.68,10.82,13,15.5,15.19C696.61,442.91,712.53,427.26,710.8,406.51Z"/><path class="cls-8" d="M827.72,421.1c.93-4-.75-11.45-5-10.37-2.89.74-4.33,2.4-6,4.69.55-2.67-3.11-5.95-6-6.05s-4.67,2.45-5.81,4.92c.84-3.15-2.22-6.63-5.7-7s-5.85,8-5.64,11.23c.45,7,4.24,10.54,6.78,12.89C811.17,441.44,824.56,434.71,827.72,421.1Z"/><path class="cls-7" d="M756,436.47c-4.61,17-6.53,68.29-2,113.34"/><path class="cls-7" d="M757.19,396.1c-28.7,71.66-9.54,156.4-9.54,156.4"/><path class="cls-8" d="M771.84,428.69c.93-4-.75-11.44-5-10.36-2.89.73-4.33,2.39-6,4.68.55-2.67-3.11-5.95-6-6.05s-4.67,2.45-5.81,4.92c.84-3.14-2.22-6.63-5.7-7s-5.85,7.95-5.64,11.24c.45,7,4.24,10.53,6.78,12.89C755.29,449,768.68,442.31,771.84,428.69Z"/></g><g id="bike"><polyline class="cls-9" points="620.15 480.06 661.77 480.06 673.91 520.08 751.45 784.48"/><path class="cls-10" d="M680.07,556.67S621.81,567.73,555.17,664c-43.57,63-109.56,39-109.56,39"/><polyline class="cls-9" points="629.15 463.12 658.75 463.12 665.91 494.83"/><line class="cls-11" x1="422.91" y1="599.32" x2="449.91" y2="746.21"/><line class="cls-9" x1="427.95" y1="632.09" x2="259.76" y2="778.21"/><path class="cls-12" d="M408.21,572.61a25.47,25.47,0,0,0-25.78,19c-.93,3.71-.78,6.91,1.58,8.42,7.7,4.93,31.65,4.09,52.55,4.09,6.46,0,12.69-2.77,18.21-6.6,10.13-7,5.42-22.94-6.91-23.4Z"/><path class="cls-13" d="M260.27,781.76l252.28-35.18c22.6-3.15,42.57,14.63,41.65,37.08h0c-.81,19.92-17.91,35.39-38.13,34.52l-254.55-11a12.85,12.85,0,0,1-12.4-12.75h0A12.84,12.84,0,0,1,260.27,781.76Z"/><polyline class="cls-12" points="680.07 539.97 842.25 517.36 809.57 614.53 705.83 614.53"/><circle class="cls-11" cx="751.36" cy="795.96" r="120"/><circle class="cls-9" cx="751.36" cy="793.92" r="10.66"/><circle class="cls-11" cx="259.76" cy="795.96" r="120"/><circle class="cls-9" cx="259.76" cy="793.85" r="10.99"/></g><g id="flower_top" data-name="flower top"><path class="cls-8" d="M662.46,482.29c-4.21-4.5-8.06-14.67-2.39-15.7,3.88-.7,6.82.55,10.53,2.45-2.7-3-1.07-9.15,2.18-10.91s7.24.42,10.47,2.86c-3.41-3.45-2.63-9.5,1-11.93s12.9,6.61,15.22,10.82c4.92,8.93,3.36,15.5,2.29,19.86C697.24,498.33,676.68,497.47,662.46,482.29Z"/></g><g id="girl_front" data-name="girl front"><path class="cls-2" d="M565.13,694.75,505.52,831.93,485.88,830s-1.23-78.07,20.59-108c19.61-26.89,23-31.14,26.25-43.22C535.23,669.38,565.13,694.75,565.13,694.75Z"/><path class="cls-2" d="M493.06,815.81s-21.63,18.5-16.41,25.47S497,843.13,497,843.13s53.45,12.49,54.13,6-41.23-24.23-41.23-24.23A26.11,26.11,0,0,0,493.06,815.81Z"/><path class="cls-3" d="M535.56,612.68c-24.19-3.72-90.6-15.09-116.12-19-29.08-4.47-65-27.66-54.26-73.36,4.76-20.32,36-9.58,49.85-7.18s115.84,30.24,144.42,51.43c22.07,16.36,21.48,27.49,20.66,38.31C579,617.77,547.09,609.76,535.56,612.68Z"/><path class="cls-3" d="M580.4,590.51c4.05,17,27.75,172.64,27.75,172.64s-41.74,12.11-83.75,8.36c-14.23-1.26-40.71-18.75-40.71-18.75L524.4,597.37S574.59,566.12,580.4,590.51Z"/><path class="cls-14" d="M407.52,341.91c7.31-10,16.92-34.44,21.2-46l19.66,14.86c-3.12,2.91-5.15,23.35-2.77,44.95Z"/><path class="cls-3" d="M464.93,534c-.23,8.16-108.76-9.65-108.35-17.8C357,507.69,367.38,413,387,373.45c3.1-6.24,13.86-39.71,25.78-37,6.17,3.77,34.2,13.37,35.6,23.51C451.76,384.36,467.23,452.85,464.93,534Z"/><path class="cls-2" d="M439.3,381.85c25.25,21.89,44.64,50.47,58.62,86.37,20.91-3.65,45.66-4.94,73.07-3,5,.35,9.76,2.26,14.73,2.06,4.55-.19,8.95-1.61,13.4-2.58,12.34-2.7,31.88-1.14,40.23,12.24,1.11,1.78-.16,4.6-2.21,4.15-18.52-4-8.39,9.93-28.92,6.74-8.36-1.29-16.24-6-24.68-5.38-4.18.29-8.16,1.82-12.11,3.24A272.88,272.88,0,0,1,487,501.09c-22.8-12.51-35.43-37.4-46.71-60.84q-8.92-18.51-17.84-37c-2.52-5.25-5.1-10.66-4.64-16.66a12.5,12.5,0,0,1,4.34-8.87C428.9,372.17,438.6,377.16,439.3,381.85Z"/><path class="cls-4" d="M415,441.83c8.92.64,3.8-.83,12.49-2.93,4.53-1.1,9.24-1.13,13.88-1.56a80,80,0,0,0,34-11.29q-10.33-19.35-20.65-38.7c-4.94-9.26-9.68-14.93-18.51-20.6s-18,5.41-20.71,18.17C412.89,397.1,407.8,405.13,415,441.83Z"/><path class="cls-8" d="M410.76,280.35c-35.06,9.66-40.37,16.84-32,2.52,3.25-5.58,17.92-34.81,57.49-59.56,31.57-19.75,84.95-29.55,80.2-15.87-8.52,24.52-20.19,41.4-39.61,48.93"/><path class="cls-14" d="M467.4,225.68c14.58,7.21,12.11,20.57,9.22,29.51-1.95,6.06,5.78,13.73,7,18.32.61,2.21-6.6,4-6.16,6.16.81,3.95-1.95,9.08-3.79,11.88-7.34,11.18-17.31,22.54-24.56,20-18.3-6.37-32.36-13.65-36.8-27.93-4.23-13.63-6.34-18.7-3.56-28.81C413,239.66,426.64,205.54,467.4,225.68Z"/><path class="cls-6" d="M475.39,238.31c-24,39.84-53.85,53.24-60.22,48.1-2.29-1.84-28.85-10-16.84-37.28,10.72-24.4,23.45-29.43,38.53-23.64C439.88,226.65,487,218.94,475.39,238.31Z"/><path class="cls-6" d="M412.43,252.27c-12.08.71-22.22,18.37-30.84,28.43-19.5,22.76-50,5.72-74.93,15.17-32.58,12.36-52.87,44.86-55.76,67.41-.48,3.77-.2,31.81,56.23,30,8.12-.26,33,4.59,58.74-12.22,22.27-14.56,25.72-30,41.65-39.14,23.46-13.45,28.87-60.53,8.79-80.61C412.89,257.87,417.26,252,412.43,252.27Z"/><path class="cls-8" d="M385.23,265.7c-25.94-29.95,38.17-88.1,69.25-52.21"/><path class="cls-8" d="M416.83,271.89q30.06-36.39,68.87-45c2.7-.6-6.78-5.21-8.47-7.4-1.42-1.86-32-1.52-33.75,0-35.9,30.79-84.45,55.2-92.05,81.46C350.61,303.77,386.25,308.93,416.83,271.89Z"/></g></svg>