<svg id="tree" xmlns="http://www.w3.org/2000/svg" viewBox="0 0 1040 1040"><defs><style>.cls-1{fill:#a3b5b7;}.cls-2,.cls-7{fill:none;stroke-miterlimit:10;}.cls-2{stroke:#fff;}.cls-3{fill:#9ab591;}.cls-4{fill:#bacdb3;}.cls-5{fill:#eddb51;}.cls-6{fill:#e0cf4a;}.cls-7{stroke:#648228;}.cls-8{fill:#74b005;}</style></defs><path class="cls-1" d="M559.81,592.16s-23.48-11.22-24.51-32.38c-.83-16.94-3.36-55.33-5.85-82.57-3.2-34.87-10.43-81.19-29.87-83-27.41-2.62-27.2,62.08-4.87,121.72,8.73,23.32,15,38.39,33.06,55,11.28,19.84,29.57,30.62,35.73,32.93Z"/><path class="cls-1" d="M558.17,585.42l3.28-8.1c-5.8-11.55-6.75-30.84-4-36.82,21.41-21.41,55.74-77.23,64.53-115.67s22.89-83.41,5.46-89.42c-23.76-8.18-88.55,84.41-91.33,143.61-.93,19.94,12.54,54.65,12,58.34,0,0-2.77,24.52,10,48.06Z"/><path class="cls-1" d="M563.48,600a55.28,55.28,0,0,0,22.12-29.16c20-4.59,37-33.36,51.61-56.34,13.68-21.55,68.33-59.45,44.94-79-5.21-4.36-11.82-4-18.53-3.53-29.32,2.19-80.6,76.34-84.07,133.7-.49,8.15-8,22.11-18.61,25.9Z"/><path class="cls-2" d="M584.27,567.82c15.53-55.46,66-120.25,97.49-131.33"/><path class="cls-2" d="M526.43,559.14c-14.92-25-20.08-42.68-23.84-58.44-13.25-55.4-11.23-103.93-11.13-106.24"/><path class="cls-2" d="M554.06,531c4.3-34.53,10.8-68.94,22.38-101.74s28.43-64.07,52.09-89.33"/><path class="cls-1" d="M554.06,585.42c0,89.46,16.06,113.88,47.43,173.8l22.93,4.54C590.73,699.42,570.9,653.64,563.6,575a3,3,0,0,0-3.11-3,4.09,4.09,0,0,0-4.54,2.3C554.59,576.76,554.06,580.51,554.06,585.42Z"/><path class="cls-1" d="M450.39,630.87c5.68-85.66-.89-111-10.63-194.38-1.64-14.06-10.09,0-10.09,0s16.18,147.51,7,185C430.89,645.19,449.12,650,450.39,630.87Z"/><path class="cls-1" d="M437.07,446.41c7.87-4.78,2.66-26.68,7.72-33.22,11.89-15.34,47.09-75.76,64.64-111.94C522,275.31,566.86,215,563.5,192.7c-1.85-12.32-12.74-16.54-28.1-10.62s-71.28,44.68-90.52,91.3c-14.88,36.06-24.71,96.14-10.51,138.26,2.5,4.06,3.31,18.79-1.1,31.19Z"/><path class="cls-3" d="M446.11,468.6c4.63-3.38,11.16-10.23,13.16-22.77a3.08,3.08,0,0,1,2.44-2.53c23.7-4.54,58.21-35.59,89.43-72.24,23.63-27.73,52.73-50.47,36.06-69.17-13-14.61-58.94,16.57-72,31.35-20.14,22.81-61.32,76.35-61.57,107.82a21.38,21.38,0,0,1-10.87,19.25,3.06,3.06,0,0,0-1.54,2.67v3.12A3.08,3.08,0,0,0,446.11,468.6Z"/><path class="cls-2" d="M459,438.51c18.18-38.87,78-111.9,128.86-130.38"/><path class="cls-2" d="M440.37,411.18c2.45-28.52,14.32-129.75,113.69-224.39"/><path class="cls-3" d="M436.62,447.72a4.67,4.67,0,0,1-5.91,4.56c-6.83-2-18.2-8.23-27-28.13C400,415.84,369,398.94,330.6,295.43c-16.39-44.21-81.41-110-94.42-135.16-7.52-14.57-5.79-22.17,6.21-23.2,10.21-.89,35.48,4.24,46,12.77v.64c24-4.54,68.27,15.39,78.57,48.05,13.49,42.8,42.62,216.85,42.62,216.85a21,21,0,0,0,2.47,6.76c8.27,15.51,16.25,19.78,20.76,20.88a4.91,4.91,0,0,1,3.82,4.7Z"/><path class="cls-2" d="M289.11,151.67c17.62,15.25,82.5,122.88,113.91,260.61"/><path class="cls-3" d="M601.49,740.17c-85-26-226.56-181.83-268.13-233.67-12.64-15.75-45.79-62.85-45.79-62.85l-4.61-8.2a5.83,5.83,0,0,0-8.63-1.77l-.72.55h0a8.46,8.46,0,0,0-1.55,8.43l1.1,3,8.17,11s39,52.26,66.21,84c76.91,89.88,183.86,213.54,264,228.88Z"/><path class="cls-3" d="M672.1,519.76c12.38-.82,25.18-16.63,26.33-24.94,0,0,8.75-39.09,52.71-92.31,19.1-23.14,48.78-46.77,67.62-60.15,17.57-12.47,41.81-30.54,76-30.54,13.89,0,34.83,4.53,40.57,15.46.44.84,2.35,4.09,2.35,4.09,5,0,16.26,3.18,17.31,14.43s-3.56,26.78-42.59,49.83c-51.71,30.53-104.35,46.49-129,59.82-17.38,9.38-49.49,26-51.55,27.55-4.3,3.19-25.41,14.58-27.64,16.87-16.14,26.62-27,28.79-32.07,27.45Z"/><path class="cls-3" d="M675.88,517.31c6-9.07,8.69-22.78,10.2-29.84,0,0,101.19-165.89,58.85-292.47-13.73-41.05-40.79-22.59-40.79-22.59S673.3,160.48,662,187c-12.05,28.18-17.33,86.61-7.05,176.24,5.09,44.38,19.94,116.35,21.18,127.2,1.58,13.74-6.22,26.75-6.22,26.75Z"/><path class="cls-2" d="M710.48,485.29c32.83-38.2,108-126.3,224.59-153.54"/><path class="cls-2" d="M708.16,181.28c3.51,89.2,2.62,184.47-25.88,305.71"/><path class="cls-3" d="M601.49,713.48c35.09-35.09,64.62-182.89,68.85-196.46a5.82,5.82,0,0,1,4.26-3.21l3.7-.29c1.18,0,1.45,2,1.1,3.12-5,16.16-19.34,89.21-39.49,154.08-6,19.3-17.16,54.08-32.18,61.15"/><path class="cls-4" d="M666,527.67c-10.51-1.08-19.48-14.15-21-36v-1.75c4.26-80.6-3.36-132-32-206.13-16.41-42.41-42.77-68.6-59.34-79.87s-46.18-18.71-60,1.41c-13.37,6.25-14.39,23.66-9.26,37.38s22.92,38,32.72,48.93C548.19,326.17,607.26,412,639.86,492.88h0c2.18,22.21,13,38.48,24.91,41.92"/><path class="cls-2" d="M505.48,207.9c31.8,35.08,99.65,127.46,134.43,257.79"/><path class="cls-5" d="M678.78,745.73c-16.44,23.58,2.26,51,5.24,54.23,7.3,7.88,18.3,11.82,29,11.63,50-.86,50.63-59.66,25.44-79.72C728.81,724.15,693,725.33,678.78,745.73Z"/><path class="cls-3" d="M716.54,728.27a2.68,2.68,0,0,1-3.65-2c-12.29-67.15-39.37-104.38-63.46-110.43l-.28-.58c-1.9-2.25.55-7.17,3.15-5.81,9.94,5.2,51.23,21.54,65.87,115.94a2.69,2.69,0,0,1-1.63,2.89Z"/><path class="cls-3" d="M760.55,596.75c.76,2-1.44,4-3.23,2.83a1.91,1.91,0,0,1-.53-.49c-25.06-34.74-62.52-37.16-92.93-22.76a2.68,2.68,0,0,1-3.91-1.72,3.13,3.13,0,0,1,1.32-3.32c9.1-6.56,60.09-26.92,98.18,23.16A11,11,0,0,1,760.55,596.75Z"/><path class="cls-5" d="M748,605.85c-23.46,16.59-27.64,39.59-14,62.45,19.66,33.07,61.7,23.41,74.86,8.45,16.76-19.06,16.52-62.42-26.79-76.83C765,594.25,748,605.85,748,605.85Z"/><path class="cls-3" d="M752.35,595.35c-15.94,7-19.28,18.37-19.28,18.37s13.61.69,22.41-7.53a52.61,52.61,0,0,0,17.74,15.34s.89-11.78-3.43-19c4-5.21,18.55-3.89,18.55-3.89s-13.11-14.84-30.57-4.18Z"/><path class="cls-4" d="M442.63,305.62c35.39,13.73,54.53-5.67,40.12-12.28-15.11-20.37-49.36-7.26-71.44,2.21,0,0,18.75,6.52,32.47,10.25"/><path class="cls-6" d="M251.2,495.5c24.49-3.92,51.14,14.45,38.36,53.68-6.74,20.7-33.92,30.83-53.71,22.54C211.46,561.5,197.5,504.1,251.2,495.5Z"/><path class="cls-4" d="M672.1,538.64c17.27,8.3,46.11-11,57.62-21.33s247.44-4.53,281.88-42.45c16.21-17.85-5.38-23.87-27.16-28.4C931.1,435.37,784.47,457.7,735.1,502c-22.59,20.27-39.67,33.47-59.61,29Z"/><path class="cls-3" d="M714.91,727.47c-3.56.69-17.36-4.25-25.78,9.23,8.18,6.38,21.16-3.74,21.16-3.74s-.56,9.87,3.18,14.08c3.82-3.82,6.11-8.8,7.26-15.17,4.8,2.56,18.57,5.52,21.81,2.29C725.86,719.56,719.81,727.47,714.91,727.47Z"/><path class="cls-3" d="M638.22,884.9c-24.3-83.81-34.59-119.44-52.94-182.74a7,7,0,0,1,4-8l-1,1.15c4-1.88,9.4-.78,11,3.34,20.65,52.95,33.8,86.21,72.83,186.3Z"/><path class="cls-3" d="M407.54,293.44c-29.93-8.26-50.79-5.64-75.13,30.43-18,26.64-20.49,79.67-22.41,104.58-.41,5.32-.45,17.08-14.58,23l1.94,8.25s19.36-6.53,24.24-33.73c5.94-33.1,96.28-114.29,126.27-118.07Z"/><path class="cls-7" d="M314.52,429.6c14.56-65.39,57.13-121.25,109.36-127.18"/><path class="cls-3" d="M285.41,440.28s-2-27.19-7.83-40.43c3.57-28.16-34.12-185.1-46.94-211.23-9-18.44-21.63-33.07-36-29.68-15.35-6.12-25.59,5.28-32,19.9-20.21,46.11,70.44,194.65,98,219.09,12.84,10,18.78,30.92,16,35.66Z"/><path class="cls-2" d="M273.16,403.16c-83.6-164.54-87.24-218.82-78.65-241.77"/><path class="cls-3" d="M275.32,446.18s-9.53,4.11-19.22-8.19c-45.67-51.12-86.62-153.37-123.58-168-29-11.52-35.2,6.68-35.2,6.68s-20.06-1.25-20.06,27.82C77.26,353,216.58,432.29,246,438c9.39,12.44,25.32,21.33,35.31,17.94Z"/><path class="cls-2" d="M245,429.74c-62.54-33.33-114.86-85.56-147.09-148.69"/><path class="cls-2" d="M737.66,506.89c68.25-28,240-66.28,275.19-39"/><path class="cls-2" d="M438.28,301.89c18.32,1.88,33.69-3.53,40.17-9.12"/><path class="cls-3" d="M401.58,813.89A81.28,81.28,0,0,0,380.67,792c-23.54-4.19-106.83-43.62-145.7-76.66-13.44-11.42-35.39-19-21.24-33.62,13.61-14.06,51-7.29,75.49.81,34.39,11.38,98.86,75.75,97.5,107.19,12,6.68,17.9,19.16,19.09,21.91a2.38,2.38,0,0,1,.2,1.09h0A2.41,2.41,0,0,1,401.58,813.89Z"/><path class="cls-2" d="M381.5,786.88c-16.18-39.75-132.79-106.33-165.42-96.52"/><path class="cls-3" d="M411.93,809c5.74-7.2-6.69-26-4.19-33.85,5.89-18.5,18.14-87.35,22.17-127.35,2.89-28.68,3.33-82.64-7.51-102.44-6-10.93-17.66-11.14-30-.3s-30.63,48.39-32.65,98.79c-1.57,39,9.89,98.77,37.72,133.43,3.73,3,9.57,16.5,9.7,29.67Z"/><path class="cls-3" d="M414.72,818.07c6.2-.41,2-18.2,17.62-38.74,54-31.23,133.8-112.18,136-155.4C569.11,609,549,598,531,607.47c-44.43,23.33-87.59,76.59-103,166.17C414.56,792.69,408.51,818.48,414.72,818.07Z"/><path class="cls-3" d="M405.43,895.31A17.87,17.87,0,0,0,416.68,891s6.58-42.13-4.94-88.75c-3.47-14-8.45-3.57-8.45-3.57S412.49,852.58,405.43,895.31Z"/><path class="cls-2" d="M437.54,769.8c12.34-30.37,27.2-59.91,46.77-86.21s44.06-49.32,73-64.66"/><path class="cls-2" d="M401.82,768.18c-4.71-37.47-9.43-75.06-9.57-112.83s4.43-75.93,18.67-110.7"/><path class="cls-5" d="M354.88,567.73c23.65,9.48,37.45,39.5,5.49,66.93-16.86,14.48-46.17,9-59.24-8.64C285,604.29,303,547,354.88,567.73Z"/><path class="cls-3" d="M341,566s-12.29-15.09-24-7.81c-.73,2.24,6.24,12.27,15.16,13-9.92,8.5-7.8,19.28-6.78,20.48s13.17-1.64,15.22-15.58c7,1,13.35,1.84,24.8-3.85-5.15-13.11-21.79-4.27-23.41-4.57Z"/><path class="cls-5" d="M301.89,478.3c23.2,8.77,37.19,38,6.6,65.65-16.13,14.61-44.76,9.89-57.81-7.14C234.6,515.82,251,459.07,301.89,478.3Z"/><path class="cls-3" d="M334.25,574.26c-.62,2.11,2.46,4.38,3.57,2.48,18.76-31.9,78.16-60.72,97.94-60a3,3,0,0,0,2.82-.86,4.34,4.34,0,0,0,.68-5c-1.1-1.88-1.15-2.62-2.32-2.62-13.29,0-76.21,24.64-99.39,58.5a55.55,55.55,0,0,0-3.3,7.44Z"/><path class="cls-3" d="M295.42,492.56c-2.78,2.79,3,8.15,5.84,4.62,27.92-34.67,121.1-31.72,131.15-1.34.24.7,1.57,1,2.91.47a4.32,4.32,0,0,0,2.81-4.16c-.15-2.16-.16-2.48-.92-3.37-25.42-29.62-100-31.48-138.09.81-.94.8-2.87,2.06-3.7,3Z"/><path class="cls-3" d="M302.69,494.27s-3.27-20-14.86-19.73c-1.39,1.54.08,13.58,6.51,18.69-8.35,1.45-13.32,10.78-13,12.31s11.15,1.35,17.52-3.91c4.92,4.32,10,5.8,20.74,6.69-5-14.37-15.4-12.1-16.51-13.16Z"/><path class="cls-5" d="M249.85,552.66c24.49-3.92,51.14,14.45,38.36,53.68-6.74,20.7-33.92,30.83-53.71,22.54C210.11,618.66,196.15,561.26,249.85,552.66Z"/><path class="cls-3" d="M262.8,569.54c-.48,2.15,2.17,3.82,3.73,2.26,61.53-61.54,123.24-81.3,168.5-62.52.68.28,1.36.11,2.25-1a4.35,4.35,0,0,0,.37-5c-1.21-1.81-1.33-2.21-2.48-2.47-67.69-15-122.82,18.93-168.19,64.3-.88.87-3.91,3.26-4.18,4.47Z"/><path class="cls-3" d="M272.57,560.93s-7.75-15.39-24.93-9.16c-.36,2.21,7.83,10.13,16.71,12.14-5.78,9.75-3.09,18.3-1.91,19.67s8.05-2.82,11-13.47c7,1.93,6.12,8.78,19.68,7.47-10.34-19.22-17-17.22-18.64-17.74Z"/><path class="cls-5" d="M524.43,587.89c24.28-5,51.72,12.17,40.7,51.93-5.82,21-32.52,32.31-52.66,24.9C487.65,655.59,471.15,598.87,524.43,587.89Z"/><path class="cls-3" d="M534.85,602.61a2.3,2.3,0,0,0,3.82,2.09c34.34-32.27,100.59-28.66,114-6.22.38.64,1.87,0,2.71-1.15a4.33,4.33,0,0,0,.14-5c-1.29-1.75-1.72-1.56-2.58-2.36-18.27-16.92-82-22.77-114.1,8-.9.86-3.76,3.44-4,4.65Z"/><path class="cls-3" d="M540.2,600.5s-6.68-19.33-20.12-16.13c-1.39,1.9,2,13.62,10.27,17.16-17.42,9.24-16.41,18.8-15.83,20.26s15.93-.37,22.28-12.94c6.35,3.11,8.16,11.84,20.82,10.06-.73-14.06-15.39-16.82-16.83-17.61Z"/><path class="cls-5" d="M314.55,888.4c16.37-18.62,48.61-21.44,63.76,16.93,8,20.25-6.5,45.38-27,51.6C326,964.6,278.63,929.25,314.55,888.4Z"/><path class="cls-3" d="M347.34,885.13s-14.42-12.43-22.46-5.33c-.06,1.93,8.24,9.68,15.9,9.53-7.9,13.1-2.41,20-1.27,21s11.24-5.81,9.54-17.61c6.1.18,11.75,6.21,19.95.47-7.53-10.48-19.41-7.51-20.85-7.61Z"/><path class="cls-8" d="M406.85,832.69a.51.51,0,0,0-.3-.06h-.06a1.19,1.19,0,0,0-.32,0c-29.27,3.35-52.23,30.19-61,51.27-1.59,3.82,3.77,3,3.94,2.68,13.83-28.18,30.06-44.69,57.32-46.86l.1,0a1.77,1.77,0,0,0,.32,0l.31,0,0-.1a3.84,3.84,0,0,0,1.5-3.4C408.64,834.43,407.86,833,406.85,832.69Z"/><path class="cls-5" d="M532.66,923.56c-18-17.09-50.33-17-62,22.53-6.16,20.88,10.5,44.62,31.51,49C528.05,1000.47,572.06,961.06,532.66,923.56Z"/><path class="cls-3" d="M502.73,913.62s9.59-7.47,22.55,3.5c.21,1.74-8,2.36-15.68,1.17,4.56,7.24,4.57,13.1,3.5,13.76s-10.73-4.41-11.49-11.92c-6.07-.68-8.35,8.93-17,2.65,6.42-11.94,15.9-9,17.32-8.91Z"/><path class="cls-8" d="M507.66,913.35c-.82,2-3.51,1.79-4.35-.25-18.08-44.07-81.17-76.23-91.42-73.33-2.2.62-4.34-6.32,1.41-7.09,11.86-1.6,77,32.72,93.45,74.61.45,1.16,1.37,4.91.91,6.06Z"/></svg>