<svg xmlns="http://www.w3.org/2000/svg" viewBox="0 0 1040 1040"><defs><style>.cls-1,.cls-11,.cls-5,.cls-7,.cls-8{fill:none;stroke-miterlimit:10;}.cls-1{stroke:#9ab591;}.cls-1,.cls-7{stroke-width:3px;}.cls-2{fill:#bacdb3;}.cls-3{fill:#9ab591;}.cls-4{fill:#a3b5b7;}.cls-5{stroke:#f2d45d;}.cls-6{fill:#f2d45d;}.cls-7{stroke:#bacdb3;}.cls-8{stroke:#fff;stroke-linecap:round;stroke-width:2px;}.cls-9{fill:#fdb7a3;}.cls-10{fill:#f8cfc1;}.cls-11{stroke:#f8cfc1;}</style></defs><g id="grass"><path class="cls-1" d="M310.35,659.45c23.35,63.76,84.49,130.64,136.83,189.29C493.89,901.07,549.08,980,573.3,1078.48"/><path class="cls-2" d="M297.76,631.11c-9.4,18.22-12.49,49.73,24.63,55.48C334.48,665.27,316,638.12,297.76,631.11Z"/><path class="cls-2" d="M358.35,662.2c-11.6,7.37-29,31.83-16.18,60.76C364.33,720.15,372.36,693.75,358.35,662.2Z"/><path class="cls-2" d="M383.73,698.37c-11.43,3.84-29.73,33.31-13.18,60.48C396.67,748.56,400,715.37,383.73,698.37Z"/><path class="cls-2" d="M412.28,732.44c-16.1,3.17-28.54,36.88-9.95,64C426.49,782.14,425.36,746,412.28,732.44Z"/><path class="cls-2" d="M437.6,759.87c-16.76,8.36-21.21,41.7-2.63,68.8C455.4,808.89,459.36,779,437.6,759.87Z"/><path class="cls-2" d="M283,700.71c10.52-5.9,48-.65,59.16,24.58C318.15,741.84,287.76,731.16,283,700.71Z"/><path class="cls-2" d="M309.21,749.38c9.24-7.77,43.22-12.9,58.67,11.75C345.51,778.07,319.44,771,309.21,749.38Z"/><path class="cls-2" d="M339.53,794.39c6.5-9.87,40.05-22.71,61.09,2.8C378.19,814.05,349.67,816.06,339.53,794.39Z"/><path class="cls-2" d="M370.75,829.44c9.77-13,38.62-21.15,62.35,1.6C415.08,852.55,385.54,848.23,370.75,829.44Z"/><path class="cls-2" d="M473.57,786.62c-15.09,12.61-22.87,50.74-4.29,77.85C493.44,850.18,505.53,812.51,473.57,786.62Z"/><path class="cls-2" d="M397.19,859.66c7.27-9.63,39-18.86,62.76,3.88C441.93,885.06,412.74,885.58,397.19,859.66Z"/><path class="cls-2" d="M511.05,828.16c-12.27,8.82-30.9,51-12.32,78.1C522.89,892,539.66,849,511.05,828.16Z"/><path class="cls-2" d="M417.43,898.79c13.38-11.39,54.25-12.52,80.09,15C471.54,931.13,428.12,934.85,417.43,898.79Z"/><path class="cls-2" d="M544.77,880.4c-13.92,4.93-36.48,50.51-17.9,77.62C551,943.74,570.07,904.46,544.77,880.4Z"/><path class="cls-2" d="M449.25,941.16c16-16.42,52.88-7.79,69.47,13.54C501.21,977.52,463.24,972.67,449.25,941.16Z"/><path class="cls-3" d="M602.23,1077.34c-1.19-19.46-4.6-78.58-4.67-115.81,6.2-84.56,1.24-202-23.08-272.73-9.78-28.41-36.1-63.72-64.38-44.85-31.7,25.9-21.55,89.6-6.64,150.28,17.57,71.52,68.8,144.36,80.79,224.71l.09-.21c4,29.15,4.39,48.82,4.18,58.88a6.86,6.86,0,1,0,13.71-.27Z"/><path class="cls-2" d="M605.23,701.42c-15.93,77.29-9.91,162.47,9.74,291.66l.12-.07c0,.88,0,1.76,0,2.65-.66,27.13-4.1,62.15-5.37,78.69a5.74,5.74,0,0,0,11.45.92c1.56-18.55,4-80.28,11.46-116.25C723.7,717.9,628.48,588.62,605.23,701.42Z"/><path class="cls-2" d="M935.2,610.43c-25.27-8-64.1,21.72-86.94,37.92C784,694,701.57,882.82,701.57,882.82,699.14,895.12,668.65,981,645,1080.5c-1.8,7.61,14.74,4.75,16.07,0,21.72-77.3,25.16-95.59,40.47-110.83,50.77-47.22,115.73-113.34,169.25-175.09C922.16,735.35,966.84,625.37,935.2,610.43Z"/><path class="cls-4" d="M313.29,1009.46c-29.41-21.44-81-22-124.88-48.45-24.61-14.82-50.24-66-23.08-59.58,9.84,2.35,30.12,24.92,49,30.1-18.44-36.85,3.77-48.47,23.25-14.23,20.9,36.76,7.09,24,79.62,62.49C317.17,979.79,349.1,1035.56,313.29,1009.46Z"/><path class="cls-4" d="M363,1056.69c-16.37-37.24-40.89-100.87-25.2-127.65,21.79-37.2,40.59-84.66,24.28-104.7-15-18.41-26.74,64.56-44.94,71.64-4.41-44.63,15-58,13.59-119.63-1.27-53.62-13.78-79-24.33-78.54-3.19.15-6.57.92-8.83,3.11-14.48,14-28.92,46-27.24,72.6s11.13,60.23,12,86.85c-10.42,2.57-21.5-18.64-26.77-28.71-12.22-23.36-38.46-44.18-44.42-35-2.52,3.86-2.74,9-2.48,13.87a95.49,95.49,0,0,0,17.76,50.18c20.15,28,54.37,43.71,70.12,74.49,15.09,29.49,36.08,140,48.28,134.17C352.47,1065.69,363.19,1058.12,363,1056.69Z"/><path class="cls-4" d="M422.74,942.61c8.43-30.66-36.94,15-39,11-4.08-7.8,23-45.53,27.55-62,10.19-37.07-40.26.71-47,41.91-8.36,50.74-18.06,71.35-35.26,96,1.23,5.35,25.47,33.76,25.56,24.85C355.16,997.43,411.79,982.43,422.74,942.61Z"/><path class="cls-5" d="M301.93,715.1c-10.88,68-1.59,207.71,43.5,336.43"/><path class="cls-5" d="M222.15,808c5.32,35.44,60.73,68.61,89.06,114.54"/><path class="cls-5" d="M317.31,947.44s39.31-60.56,40.92-111.28"/><path class="cls-5" d="M339.24,1029.78c33.32-22.44,33.17-113.41,62.06-144"/><path class="cls-5" d="M367.58,984.43s19.57-2.36,47.79-39.91"/><path class="cls-5" d="M161.7,913s24,42.21,81.15,54.93c57.39,12.78,89.46,42.28,89.46,42.28"/><path class="cls-5" d="M255.26,969.54S225.45,947.94,219,907.6"/></g><g id="flower"><polygon class="cls-6" points="559.54 723.06 565.39 721.73 556.23 717.81 563.3 714.87 557.03 713.38 562.65 709.25 560.62 709.25 562.73 707.34 555.07 708.51 558.79 701.98 557.71 702.44 557.97 701.98 553.43 703.92 555.16 698.84 550.41 702.35 551.12 696.63 545.29 703.03 544.67 692.57 541.05 698.33 538.98 691.9 537.3 697.11 536.04 694.64 534.77 700.82 529.81 695.37 529.94 696.41 528.99 695.37 529.94 702.98 525.39 699.89 527.19 705.4 522.14 703.25 523.36 705.38 517.35 703.95 521.77 709.25 515.31 709.25 521.35 713.68 513.79 714.84 520.45 718.01 514.72 720.46 523.24 722.4 515.88 727.83 522.68 727.59 522.15 728.43 518.5 732.42 519.83 732.12 519.09 733.29 524.39 731.08 526.52 730.6 524.35 737.33 527.81 734.79 526.74 740.02 533.76 733.64 534.88 742.58 535.55 741.4 535.7 742.58 537.99 738.55 539.77 744.04 541.86 737.91 545.23 743.85 545.94 738.17 547.5 740.03 547.05 732.52 553.61 737.33 552.26 733.14 556.98 735.38 553.9 729.4 561.61 731.16 561.39 730.92 562.43 731.16 558.03 726.33 564.05 726.12 559.54 723.06"/><polygon class="cls-6" points="612.82 830.74 618.67 829.41 609.51 825.49 616.58 822.55 610.3 821.06 615.93 816.93 613.9 816.93 616 815.02 608.35 816.19 612.06 809.66 610.98 810.12 611.25 809.66 606.71 811.6 608.44 806.52 603.69 810.03 604.4 804.32 598.57 810.71 597.95 800.25 594.33 806.01 592.26 799.58 590.58 804.79 589.32 802.32 588.05 808.5 583.08 803.05 583.21 804.09 582.26 803.05 583.21 810.66 578.67 807.57 580.47 813.08 575.42 810.93 576.63 813.06 570.62 811.63 575.05 816.93 568.59 816.93 574.63 821.36 567.07 822.52 573.73 825.69 568 828.14 576.51 830.08 569.16 835.51 575.95 835.27 575.42 836.11 571.78 840.11 573.1 839.8 572.37 840.97 577.67 838.76 579.8 838.28 577.63 845.01 581.08 842.48 580.01 847.7 587.04 841.32 588.16 850.26 588.83 849.08 588.97 850.26 591.26 846.23 593.05 851.72 595.14 845.59 598.51 851.53 599.22 845.86 600.77 847.72 600.33 840.2 606.89 845.01 605.54 840.82 610.25 843.07 607.18 837.08 614.89 838.84 614.67 838.6 615.7 838.84 611.31 834.01 617.33 833.8 612.82 830.74"/><polygon class="cls-6" points="536.96 855.92 542.82 854.58 533.66 850.67 540.72 847.72 534.45 846.23 540.08 842.11 538.04 842.11 540.15 840.2 532.49 841.37 536.21 834.84 535.13 835.3 535.39 834.84 530.86 836.77 532.58 831.7 527.83 835.2 528.55 829.49 522.71 835.89 522.09 825.42 518.47 831.18 516.4 824.76 514.73 829.96 513.46 827.5 512.19 833.67 507.23 828.22 507.36 829.26 506.41 828.22 507.36 835.83 502.82 832.75 504.61 838.26 499.56 836.11 500.78 838.24 494.77 836.81 499.2 842.11 492.73 842.11 498.77 846.54 491.22 847.7 497.87 850.87 492.14 853.32 500.66 855.26 493.31 860.68 500.1 860.44 499.57 861.28 495.92 865.28 497.25 864.98 496.51 866.15 501.81 863.94 503.94 863.45 501.77 870.18 505.23 867.65 504.16 872.88 511.19 866.5 512.3 875.43 512.97 874.25 513.12 875.43 515.41 871.41 517.2 876.89 519.28 870.77 522.65 876.7 523.36 871.03 524.92 872.89 524.47 865.37 531.03 870.18 529.69 866 534.4 868.24 531.32 862.26 539.03 864.02 538.82 863.78 539.85 864.02 535.45 859.19 541.47 858.98 536.96 855.92"/><polygon class="cls-6" points="556.33 806.46 562.19 805.12 553.03 801.21 560.1 798.26 553.82 796.77 559.45 792.65 557.41 792.65 559.52 790.74 551.87 791.91 555.58 785.38 554.5 785.84 554.76 785.38 550.23 787.32 551.96 782.24 547.21 785.74 547.92 780.03 542.09 786.43 541.46 775.96 537.85 781.72 535.78 775.3 534.1 780.5 532.83 778.04 531.57 784.21 526.6 778.76 526.73 779.8 525.78 778.76 526.73 786.37 522.19 783.29 523.98 788.8 518.94 786.64 520.15 788.78 514.14 787.35 518.57 792.65 512.11 792.65 518.15 797.08 510.59 798.24 517.25 801.4 511.51 803.86 520.03 805.8 512.68 811.22 519.47 810.98 518.94 811.82 515.3 815.82 516.62 815.52 515.89 816.69 521.18 814.48 523.31 813.99 521.15 820.73 524.6 818.19 523.53 823.42 530.56 817.04 531.67 825.98 532.34 824.79 532.49 825.98 534.78 821.95 536.57 827.43 538.65 821.31 542.03 827.24 542.74 821.57 544.29 823.43 543.84 815.91 550.41 820.73 549.06 816.54 553.77 818.78 550.7 812.8 558.4 814.56 558.19 814.32 559.22 814.56 554.82 809.73 560.84 809.52 556.33 806.46"/><polygon class="cls-6" points="691.11 828.24 691.64 828.12 687.11 826.18 692.2 824.02 686.31 822.98 691.21 819.66 682.35 819.79 690.04 812.34 683.16 813.61 686.75 807.84 681.59 810.13 682.65 807.57 677.03 810.8 677.92 803.61 677.2 804.4 677.38 803.03 672.12 808.8 671.47 803.5 668.4 808.46 666.69 803.42 665.85 805.71 662.94 800.47 661.8 807.18 657.47 802.57 658.08 809.84 652.13 805.23 654.13 812.09 648.39 809.64 652.59 817.02 643.47 815.41 648.2 820.09 647.2 820.27 641.66 820.35 642.78 821.09 641.38 821.35 646.64 823.65 648.44 824.84 641.78 827.8 646.05 828.57 641.28 831.3 650.93 832.04 644.75 838.82 646.12 838.51 645.3 839.4 649.95 838.34 646.9 843.29 653.04 840.68 650.7 847.05 655.57 843.76 655.17 846.12 660.69 840.77 661.36 848.67 663.69 844.91 665.11 849.77 667.69 843.57 671.48 850.24 671.52 849.93 672.03 850.83 672.83 844.46 677.02 848.61 676.37 843.35 681.32 846.63 678.22 837.48 685.24 840.55 682.19 835.08 689.15 836.33 687.79 834.88 690.68 835.1 684.65 830.43 692.19 828.71 691.11 828.24"/><polygon class="cls-6" points="737.46 806.06 738 805.94 733.46 804 738.55 801.84 732.66 800.79 737.56 797.48 728.7 797.61 736.39 790.16 729.51 791.43 733.1 785.65 727.95 787.94 729.01 785.39 723.38 788.62 724.27 781.43 723.55 782.22 723.73 780.85 718.47 786.62 717.82 781.32 714.75 786.28 713.04 781.24 712.21 783.53 709.29 778.29 708.15 785 703.82 780.39 704.43 787.66 698.48 783.04 700.48 789.91 694.75 787.46 698.94 794.84 689.82 793.22 694.55 797.91 693.55 798.09 688.01 798.17 689.13 798.91 687.74 799.17 692.99 801.47 694.79 802.66 688.13 805.62 692.4 806.39 687.64 809.12 697.28 809.86 691.11 816.64 692.47 816.33 691.65 817.22 696.3 816.16 693.25 821.11 699.39 818.5 697.05 824.87 701.92 821.58 701.52 823.94 707.04 818.59 707.71 826.49 710.05 822.72 711.46 827.59 714.04 821.39 717.84 828.06 717.87 827.75 718.38 828.64 719.18 822.28 723.37 826.43 722.72 821.17 727.67 824.45 724.58 815.3 731.59 818.37 728.54 812.89 735.5 814.15 734.14 812.7 737.03 812.92 731 808.25 738.54 806.52 737.46 806.06"/><polygon class="cls-6" points="800.65 777 801.18 776.88 796.65 774.94 801.74 772.77 795.85 771.73 800.75 768.42 791.89 768.54 799.58 761.09 792.7 762.37 796.29 756.59 791.13 758.88 792.2 756.33 786.57 759.56 787.46 752.37 786.74 753.16 786.91 751.79 781.66 757.55 781.01 752.25 777.94 757.22 776.23 752.18 775.39 754.47 772.48 749.23 771.34 755.93 767.01 751.32 767.62 758.6 761.67 753.98 763.67 760.85 757.93 758.4 762.13 765.77 753.01 764.16 757.74 768.84 756.73 769.03 751.2 769.11 752.32 769.85 750.92 770.11 756.18 772.41 757.98 773.6 751.32 776.56 755.59 777.33 750.83 780.06 760.47 780.8 754.29 787.58 755.66 787.27 754.84 788.16 759.49 787.1 756.44 792.04 762.58 789.43 760.24 795.81 765.11 792.52 764.71 794.87 770.23 789.52 770.89 797.42 773.23 793.66 774.65 798.52 777.23 792.32 781.02 799 781.06 798.68 781.57 799.58 782.37 793.22 786.56 797.37 785.91 792.1 790.86 795.38 787.76 786.23 794.77 789.3 791.73 783.83 798.69 785.08 797.33 783.63 800.22 783.86 794.19 779.18 801.73 777.46 800.65 777"/><polygon class="cls-6" points="665.65 879.14 666.19 879.02 661.65 877.08 666.74 874.92 660.85 873.87 665.75 870.56 656.89 870.68 664.58 863.24 657.7 864.51 661.29 858.73 656.14 861.02 657.2 858.47 651.57 861.7 652.47 854.51 651.75 855.3 651.92 853.93 646.66 859.7 646.01 854.39 642.94 859.36 641.24 854.32 640.39 856.61 637.48 851.37 636.34 858.08 632.01 853.47 632.63 860.74 626.67 856.12 628.67 862.99 622.94 860.54 627.13 867.91 618.01 866.3 622.74 870.99 621.74 871.17 616.2 871.25 617.32 871.99 615.93 872.25 621.18 874.55 622.98 875.74 616.32 878.7 620.59 879.47 615.83 882.2 625.47 882.94 619.3 889.72 620.66 889.41 619.84 890.3 624.5 889.24 621.44 894.19 627.58 891.58 625.24 897.95 630.11 894.66 629.71 897.01 635.23 891.66 635.9 899.56 638.24 895.8 639.65 900.66 642.23 894.47 646.03 901.14 646.07 900.83 646.57 901.72 647.37 895.36 651.56 899.51 650.91 894.25 655.87 897.53 652.77 888.38 659.78 891.45 656.73 885.97 663.69 887.23 662.33 885.77 665.22 886 659.19 881.32 666.74 879.6 665.65 879.14"/><polygon class="cls-6" points="653.82 777.89 654.36 777.77 649.82 775.83 654.91 773.67 649.02 772.62 653.92 769.31 645.06 769.43 652.75 761.99 645.87 763.26 649.46 757.48 644.3 759.77 645.37 757.22 639.74 760.45 640.63 753.26 639.91 754.05 640.09 752.68 634.83 758.45 634.17 753.14 631.11 758.11 629.4 753.07 628.56 755.36 625.65 750.12 624.51 756.83 620.18 752.22 620.79 759.49 614.84 754.87 616.84 761.74 611.11 759.29 615.3 766.66 606.18 765.05 610.91 769.74 609.9 769.92 604.37 770 605.49 770.74 604.1 771 609.35 773.3 611.15 774.49 604.49 777.45 608.76 778.22 604 780.95 613.64 781.69 607.46 788.47 608.83 788.16 608.01 789.05 612.66 787.99 609.61 792.94 615.75 790.33 613.41 796.7 618.28 793.41 617.88 795.76 623.4 790.41 624.07 798.32 626.4 794.55 627.82 799.41 630.4 793.22 634.19 799.89 634.23 799.58 634.74 800.47 635.54 794.11 639.73 798.26 639.08 793 644.03 796.28 640.93 787.13 647.95 790.2 644.9 784.72 651.86 785.98 650.5 784.52 653.39 784.75 647.36 780.07 654.9 778.35 653.82 777.89"/><polygon class="cls-6" points="889.3 879.49 889.83 879.37 885.3 877.43 890.39 875.26 884.49 874.22 889.39 870.91 880.54 871.03 888.23 863.58 881.34 864.86 884.93 859.08 879.78 861.37 880.84 858.82 875.21 862.05 876.11 854.86 875.39 855.65 875.56 854.27 870.3 860.04 869.65 854.74 866.59 859.71 864.88 854.67 864.04 856.96 861.12 851.72 859.98 858.42 855.66 853.81 856.27 861.09 850.32 856.47 852.32 863.34 846.58 860.89 850.77 868.26 841.65 866.65 846.39 871.33 845.38 871.52 839.85 871.6 840.97 872.34 839.57 872.59 844.83 874.89 846.63 876.09 839.96 879.05 844.24 879.82 839.47 882.55 849.12 883.29 842.94 890.07 844.3 889.75 843.49 890.65 848.14 889.59 845.09 894.53 851.22 891.92 848.89 898.3 853.75 895.01 853.35 897.36 858.88 892.01 859.54 899.91 861.88 896.15 863.3 901.01 865.88 894.81 869.67 901.49 869.71 901.17 870.22 902.07 871.01 895.71 875.21 899.86 874.56 894.59 879.51 897.87 876.41 888.72 883.42 891.79 880.38 886.32 887.34 887.57 885.98 886.12 888.87 886.34 882.84 881.67 890.38 879.95 889.3 879.49"/><polygon class="cls-6" points="511.42 779.5 517.28 778.16 508.12 774.25 515.19 771.3 508.91 769.81 514.54 765.69 512.5 765.69 514.61 763.78 506.95 764.95 510.67 758.42 509.59 758.88 509.85 758.42 505.32 760.35 507.05 755.27 502.29 758.78 503.01 753.07 497.18 759.47 496.55 749 492.94 754.76 490.87 748.34 489.19 753.54 487.92 751.08 486.66 757.25 481.69 751.8 481.82 752.85 480.87 751.8 481.82 759.41 477.28 756.33 479.07 761.84 474.03 759.68 475.24 761.82 469.23 760.39 473.66 765.69 467.19 765.69 473.24 770.12 465.68 771.28 472.34 774.45 466.6 776.89 475.12 778.84 467.77 784.26 474.56 784.02 474.03 784.86 470.39 788.86 471.71 788.56 470.98 789.73 476.27 787.52 478.4 787.03 476.24 793.76 479.69 791.23 478.62 796.46 485.65 790.08 486.76 799.01 487.43 797.83 487.58 799.01 489.87 794.99 491.66 800.47 493.74 794.35 497.12 800.28 497.82 794.61 499.38 796.47 498.93 788.95 505.5 793.76 504.15 789.58 508.86 791.82 505.78 785.84 513.49 787.6 513.28 787.36 514.31 787.6 509.91 782.77 515.93 782.56 511.42 779.5"/><polygon class="cls-6" points="784.93 855.2 785.46 855.08 780.93 853.14 786.02 850.98 780.12 849.94 785.02 846.62 776.16 846.75 783.86 839.3 776.97 840.57 780.56 834.8 775.41 837.09 776.47 834.53 770.84 837.76 771.74 830.57 771.02 831.36 771.19 829.99 765.93 835.76 765.28 830.46 762.22 835.42 760.51 830.38 759.67 832.67 756.75 827.43 755.61 834.14 751.29 829.53 751.9 836.8 745.94 832.19 747.95 839.05 742.21 836.6 746.4 843.98 737.28 842.37 742.01 847.05 741.01 847.23 735.48 847.31 736.59 848.05 735.2 848.31 740.46 850.61 742.26 851.8 735.59 854.76 739.87 855.53 735.1 858.26 744.75 859.01 738.57 865.78 739.93 865.47 739.12 866.37 743.77 865.3 740.72 870.25 746.85 867.64 744.52 874.01 749.38 870.72 748.98 873.08 754.5 867.73 755.17 875.63 757.51 871.87 758.93 876.73 761.5 870.53 765.3 877.2 765.34 876.89 765.85 877.78 766.64 871.42 770.84 875.57 770.19 870.31 775.14 873.59 772.04 864.44 779.05 867.51 776.01 862.04 782.97 863.29 781.6 861.84 784.5 862.06 778.46 857.39 786.01 855.66 784.93 855.2"/><polygon class="cls-6" points="460.73 855.2 461.26 855.08 456.73 853.14 461.82 850.98 455.92 849.94 460.82 846.62 451.96 846.75 459.65 839.3 452.77 840.57 456.36 834.8 451.21 837.09 452.27 834.53 446.64 837.76 447.54 830.57 446.82 831.36 446.99 829.99 441.73 835.76 441.08 830.46 438.01 835.42 436.31 830.38 435.47 832.67 432.55 827.43 431.41 834.14 427.09 829.53 427.7 836.8 421.74 832.19 423.75 839.05 418.01 836.6 422.2 843.98 413.08 842.37 417.81 847.05 416.81 847.23 411.27 847.31 412.39 848.05 411 848.31 416.26 850.61 418.06 851.8 411.39 854.76 415.67 855.53 410.9 858.26 420.55 859.01 414.37 865.78 415.73 865.47 414.92 866.37 419.57 865.3 416.52 870.25 422.65 867.64 420.32 874.01 425.18 870.72 424.78 873.08 430.31 867.73 430.97 875.63 433.31 871.87 434.73 876.73 437.31 870.53 441.1 877.2 441.14 876.89 441.65 877.78 442.44 871.42 446.63 875.57 445.99 870.31 450.94 873.59 447.84 864.44 454.85 867.51 451.81 862.04 458.76 863.29 457.4 861.84 460.3 862.06 454.26 857.39 461.81 855.66 460.73 855.2"/><polygon class="cls-6" points="835.84 826.66 836.38 826.53 831.84 824.6 836.93 822.43 831.04 821.39 835.94 818.08 827.08 818.2 834.77 810.75 827.89 812.03 831.48 806.25 826.33 808.54 827.39 805.99 821.76 809.22 822.65 802.03 821.93 802.82 822.11 801.44 816.85 807.21 816.2 801.91 813.13 806.88 811.42 801.84 810.59 804.13 807.67 798.89 806.53 805.59 802.2 800.98 802.82 808.26 796.86 803.64 798.86 810.51 793.13 808.06 797.32 815.43 788.2 813.82 792.93 818.5 791.93 818.69 786.39 818.76 787.51 819.51 786.12 819.76 791.37 822.07 793.17 823.26 786.51 826.22 790.78 826.99 786.02 829.72 795.66 830.46 789.49 837.24 790.85 836.92 790.03 837.82 794.68 836.76 791.63 841.7 797.77 839.09 795.43 845.47 800.3 842.18 799.9 844.53 805.42 839.18 806.09 847.08 808.43 843.32 809.84 848.18 812.42 841.98 816.22 848.65 816.25 848.34 816.76 849.24 817.56 842.88 821.75 847.02 821.1 841.76 826.05 845.04 822.96 835.89 829.97 838.96 826.92 833.49 833.88 834.74 832.52 833.29 835.41 833.51 829.38 828.84 836.92 827.12 835.84 826.66"/></g><g id="epi"><path class="cls-2" d="M651.35,46.6c-17.71,14-35,44.2,0,66.43C673.18,97.07,666.64,61.7,651.35,46.6Z"/><path class="cls-2" d="M698.75,104.61C683.67,106.83,655,123.55,655,158.19,678.74,165.23,698.75,142.38,698.75,104.61Z"/><path class="cls-2" d="M708.19,152.06c-13.32-1.24-45.11,20.11-40.55,54.64C698.71,208,717,176.3,708.19,152.06Z"/><path class="cls-2" d="M721.77,198.81c-17.73-4-45.48,24.22-38.85,59.59C713.81,254.84,728.93,218.19,721.77,198.81Z"/><path class="cls-2" d="M735.09,237.5c-20.73.91-40.24,32.28-33.6,67.65C731.08,294.43,748.52,266.31,735.09,237.5Z"/><path class="cls-2" d="M605.09,109.66C618.4,108.43,654,130.31,654,160.51,622.21,166.41,596.23,142.24,605.09,109.66Z"/><path class="cls-2" d="M609.77,170c12.84-3.66,49.56,6.3,54.14,37.81C633.63,214.81,610.39,196.16,609.77,170Z"/><path class="cls-2" d="M620.22,228.47c11-7,50.79-4.93,60.63,29.93C650.54,265.31,620.76,254.65,620.22,228.47Z"/><path class="cls-2" d="M636.66,277.28c15.74-8.64,48.63-4,62.44,29.29C671.17,320.09,643.2,302.66,636.66,277.28Z"/><path class="cls-2" d="M759.49,280.22c-21,5.92-46,40.6-39.35,76C751,352.63,780.21,320.32,759.49,280.22Z"/><path class="cls-2" d="M657,326c11.7-6.4,48-1.53,61.82,31.76C690.84,371.28,661,358.84,657,326Z"/><path class="cls-2" d="M778.78,338.42c-16.4,3.38-50.32,36-43.69,71.4C766,406.26,798.37,372,778.78,338.42Z"/><path class="cls-2" d="M668,374.15c18.69-4.65,52,6.21,65.77,39.5C705.79,427.16,662.56,409,668,374.15Z"/><path class="cls-2" d="M789.43,405.65c-16.31-1.25-54,29.64-47.4,65C772.93,467.1,804.24,441,789.43,405.65Z"/><path class="cls-2" d="M674.75,431.19c23.59-9.1,57.06,15.33,64.28,43.36C711,489.24,674.75,468,674.75,431.19Z"/><path class="cls-7" d="M651.62,108c-3.35,59.28,24.82,137,45.25,188.85,39.58,100.5,64.9,175.91,19,281.63"/><path class="cls-8" d="M748.22,467c13.51-10.9,27.08-30.54,36.52-52.26"/><path class="cls-8" d="M739.68,402.45c13.24-9.17,28.68-33.8,36.44-59.09"/><path class="cls-8" d="M723.53,349.49c17.74-19.5,27.79-37.38,33.18-63.06"/><path class="cls-8" d="M706.89,296.83c7.58-7.8,21.53-41.12,26.47-56.52"/><path class="cls-8" d="M690.06,247.14c6.1-6,17.66-24.08,28.71-40.4"/><path class="cls-8" d="M673.23,201.62s8.25-20.14,33.66-45.24"/><path class="cls-8" d="M663.91,152c8.77-16.2,22.06-32.34,32-42.16"/><path class="cls-8" d="M651.66,109.85c-3.23-15.43-7.3-31.64-1.12-55.48"/><path class="cls-8" d="M649.38,154.33a110.69,110.69,0,0,1-40.67-35"/><path class="cls-8" d="M657,202.42,631.41,189c-4.55-2.39-9.4-5.08-11.59-9.69-.55-1.18-1.32-2.7-2.62-2.53"/><path class="cls-8" d="M670.47,250a91.74,91.74,0,0,1-45-16.52"/><path class="cls-8" d="M639.08,278.2a258.3,258.3,0,0,0,51.1,24.88"/><path class="cls-8" d="M660.64,328.84a213.75,213.75,0,0,0,47.14,25.4"/><path class="cls-8" d="M673.39,380.11a250.39,250.39,0,0,0,50.08,30.16"/><path class="cls-8" d="M677.7,434.58a413.71,413.71,0,0,0,56.77,35.29"/></g><g id="bird"><path class="cls-9" d="M356.15,387.24c-14.16-37.05-43.18-54.88-65-82.18-21.36-26.68-40.24-57.1-44-90.83a2,2,0,0,1,2.15-2.23h0l.26,0c17.83,3.07,28.09,7.63,45.32,10.58,85.53,14.65,148.49,57.5,185.93,122.21Z"/><path class="cls-10" d="M664.68,324c18.33-14.42,24.75-18.76,33.5-32.22a3.08,3.08,0,0,0-2.76-4.78,159.84,159.84,0,0,0-35.17,6.37l-.5-1.39C621.18,261.76,568.2,276.62,538,304.43c-17.46,16.07-18.51,20.95-45.44,20.95-71.42,0-153.88,36.62-220.07,102-72.11-2.54-127.68-1.49-199.71,2.66-30.61,1.77-9.51,25.93,34.62,46.32-14.16,9.09-45.91,40.88-30,46.4,18.25,6.32,130.39-32.53,221.21-32.53l-3.05-.47C375,534.46,532.28,529.17,597,446.4c16.61-21.24,51.53-51.57,65.41-115.47Z"/><path class="cls-11" d="M664.68,324c18.33-14.42,24.75-18.76,33.5-32.22a3.08,3.08,0,0,0-2.76-4.78,159.84,159.84,0,0,0-35.17,6.37l-.5-1.39C621.18,261.76,568.2,276.62,538,304.43c-17.46,16.07-18.51,20.95-45.44,20.95-71.42,0-153.88,36.62-220.07,102-72.11-2.54-127.68-1.49-199.71,2.66-30.61,1.77-9.51,25.93,34.62,46.32-14.16,9.09-45.91,40.88-30,46.4,18.25,6.32,130.39-32.53,221.21-32.53l-3.05-.47C375,534.46,532.28,529.17,597,446.4c16.61-21.24,51.53-51.57,65.41-115.47Z"/><path d="M629.81,299a8.55,8.55,0,0,1,5.69,4.28,7.65,7.65,0,0,1-.13,7c-3.18,6-9.89,5.3-11.28,5.2-2.47-.16-5.5-3.06-5.92-5.47C616.5,300.36,627.32,298.41,629.81,299Z"/><path class="cls-9" d="M504.53,388.24c-34.93-12.39-57.92,5.8-80.07,35.2s-27.95,67.78-28.15,104.43c-.24,44.29,6.48,72.92,14.35,120.58,7.64,48.92,34.28-21.77,52.64-47.61,8.45-11.89,20.84-40.19,29.92-51.62,29.12-36.63,42.15-70.15,43.7-108C537.62,424.34,524.89,395.46,504.53,388.24Z"/></g></svg>