<?xml version="1.0" encoding="utf-8"?>
<!-- Generator: Adobe Illustrator 25.2.0, SVG Export Plug-In . SVG Version: 6.00 Build 0)  -->
<svg version="1.1" id="圖層_1" xmlns="http://www.w3.org/2000/svg" xmlns:xlink="http://www.w3.org/1999/xlink" x="0px" y="0px"
	 viewBox="0 0 480 83.1" style="enable-background:new 0 0 480 83.1;" xml:space="preserve">
<style type="text/css">
	.st0{display:none;}
	.st1{display:inline;fill:#FBDCC5;}
	.st2{display:inline;}
	.st3{fill:#FFFFFF;}
	.st4{fill:none;stroke:#FFFFFF;stroke-width:2;stroke-miterlimit:10;}
	.st5{display:inline;fill:#EDEDED;}
	.st6{display:inline;fill:#FFFFFF;}
	.st7{fill:#343434;}
</style>
<g id="圖層_3" class="st0">
	<ellipse class="st1" cx="-101.3" cy="120.2" rx="141" ry="141.6"/>
	<g class="st2">
		<polygon class="st3" points="13.4,188 -217.4,54.9 -216,52.4 14.8,185.6 		"/>
	</g>
	<g class="st2">
		<polygon class="st3" points="25,162.7 -228.4,80.4 -227.6,77.7 25.9,160 		"/>
	</g>
	<g class="st2">
		<polygon class="st3" points="-227.6,162.7 -228.4,160 25,77.7 25.9,80.4 		"/>
	</g>
	<g class="st2">
		<polygon class="st3" points="-216,188 -217.4,185.6 13.4,52.4 14.8,54.9 		"/>
	</g>
	<circle class="st1" cx="208.1" cy="126.9" r="100"/>
	<g class="st2">
		<line class="st4" x1="208.1" y1="36.9" x2="208.1" y2="216.9"/>
		<line class="st4" x1="184.8" y1="40" x2="231.4" y2="213.8"/>
		<line class="st4" x1="163.1" y1="49" x2="253.1" y2="204.9"/>
		<line class="st4" x1="144.4" y1="63.3" x2="271.7" y2="190.6"/>
		<line class="st4" x1="130.1" y1="81.9" x2="286" y2="171.9"/>
		<line class="st4" x1="130.1" y1="171.9" x2="286" y2="81.9"/>
		<line class="st4" x1="144.4" y1="190.6" x2="271.7" y2="63.3"/>
		<line class="st4" x1="163.1" y1="204.9" x2="253.1" y2="49"/>
		<line class="st4" x1="184.8" y1="213.8" x2="231.4" y2="40"/>
	</g>
	<circle class="st5" cx="452" cy="73.3" r="100"/>
	<polygon class="st6" points="542,72.3 459.6,72.3 539.2,51 538.7,49 459.1,70.4 530.5,29.2 529.5,27.4 458.1,68.6 516.4,10.4 
		515,8.9 456.7,67.2 497.9,-4.1 496.2,-5.1 455,66.2 476.3,-13.4 474.4,-13.9 453,65.7 453,-16.7 451,-16.7 451,65.7 429.7,-13.9 
		427.8,-13.4 449.1,66.2 407.9,-5.1 406.2,-4.1 447.4,67.2 389.1,8.9 387.7,10.4 446,68.6 374.6,27.4 373.6,29.2 445,70.4 365.4,49 
		364.8,51 444.4,72.3 362,72.3 362,74.3 444.4,74.3 364.8,95.6 365.4,97.6 445,76.2 373.6,117.4 374.6,119.2 446,78 387.7,136.2 
		389.1,137.6 447.4,79.4 406.2,150.7 407.9,151.7 449.1,80.4 427.8,160 429.7,160.5 451,80.9 451,163.3 453,163.3 453,80.9 
		474.4,160.5 476.3,160 455,80.4 496.2,151.7 497.9,150.7 456.7,79.4 515,137.6 516.4,136.2 458.1,78 529.5,119.2 530.5,117.4 
		459.1,76.2 538.7,97.6 539.2,95.6 459.6,74.3 542,74.3 	"/>
</g>
<g id="eco_market">
	<g>
		<path class="st7" d="M141.9,50c-0.2-0.1-0.4-0.1-0.6-0.1c-0.6,0-1.1,0.3-1.4,0.9c-1.6,3.3-3.2,6.2-4.9,8.5
			c-4.6,6.3-8.8,9.4-12.6,9.4c-1,0-1.6-0.3-2.4-0.7c4.2-12.1,5.3-29.1-2.3-37.4c-4.5-5-12.1-3-16.2,2.7C99.2,32,96.7,31,96,31.8
			c-1.2,1.2-1.8,7.7-2,8.4c-1,5.2-1.7,10-2,14c-1,1.8-2.2,3.8-3.7,6c-4.8,7.2-9.9,12.6-15.3,16.3c-2.8,2-5.5,3-8,3s-4.3-1.6-5.6-4.8
			c-1.1-2.7-1.6-5.7-1.6-9.1c0-2.7,0.3-5.6,1-8.6c0.6-3.1,1.5-5.9,2.6-8.6c1.1-2.7,2.3-4.8,3.6-6.5c1.3-1.7,2.7-2.6,4-2.6
			c0.4,0,0.9,0.3,1.3,0.8c0.5,0.5,0.7,1.3,0.7,2.4v0.8c0,0.4,0.1,0.7,0.4,1c0.2,0.3,0.6,0.5,1.2,0.5c0.3,0,0.6-0.1,0.9-0.3
			s0.5-0.5,0.5-1c0-0.4,0-0.8,0-1.2c0-2.7-0.9-4.9-2.6-6.8c-2-2.2-4.8-3.3-8.3-3.3c-2.7,0-5,0.9-7,2.6c-2,1.8-3.7,4-5,6.7
			c-0.6,1.3-1.2,2.6-1.7,4c-0.6,0.1-1,0.3-1.2,0.9c-2.1,4.6-5.3,9.8-9.6,15.7c-4.9,6.8-9.5,11.6-13.9,14.6C22.3,78.2,20.1,79,18,79
			c-2.5,0-4.3-1.6-5.6-4.8c-1.1-2.6-1.6-5.7-1.6-9.1c0-1.1,0-2.2,0.1-3.4c3.3-0.3,6.1-1.3,8.4-2.8c2.3-1.6,4.1-3.5,5.4-5.7
			c1.3-2.3,2.1-4.2,2.3-5.8c0.2-1.6,0.3-2.7,0.3-3.4c0-4.4-1.5-7.8-4.4-10.2c-1.7-1.4-4-2.1-6.7-2.1s-5,0.9-7,2.7s-3.7,4-5,6.7
			s-2.4,5.6-3,8.6c-0.7,3-1,5.7-1,8.2c0,5.2,0.7,9.7,2.2,13.5S5.6,78,8.1,80c2.5,2.1,5.3,3.1,8.4,3.1s6-0.9,8.8-2.7
			c2.8-1.8,5.5-4,8-6.8s5-5.8,7.3-9c2.5-3.5,4.7-6.9,6.6-10C47.1,55.9,47,57,47,58.2c0,7.8,1.5,13.9,4.4,18.3s7,6.6,12.3,6.6
			c2.5,0,4.9-0.6,7.3-1.8c2.4-1.2,4.7-2.8,6.9-4.8c2.2-2,4.5-4.2,6.6-6.6c2.9-3.3,5.3-6.5,7.3-9.6c0.3,5.1,1.2,9.3,2.5,13
			c3.8,10.5,15.1,14,21.8,3.1c1-1.7,2-3.5,2.9-6c1.2,0.6,2.1,1,3.5,1c4.4,0,9.4-3.5,14.9-10.6c1.8-2.5,3.6-5.5,5.2-8.9
			c0.1-0.2,0.1-0.4,0.1-0.6C142.8,50.8,142.5,50.3,141.9,50z M13.8,49.2c1.1-3,2.4-5.5,3.8-7.4c1.4-2,2.9-3,4.4-3
			c1.4,0,2.1,1.7,2.1,5c0,4.2-1.5,7.9-4.4,10.9c-1.9,2-4.7,3.3-8.3,3.8C11.9,55.3,12.7,52.2,13.8,49.2z M108,77L108,77
			c-1.4,0-3.1-1.5-4-3.5c-1-1.9-2.9-5.4-1-20.5c2,6.2,6.7,13.3,11,16C112.4,74.2,110.3,76.8,108,77z M114.9,66
			c-3.3-2.5-8.9-10.8-10.6-19.4c0.3-3.7,1.4-9.3,1.4-9.5c0-0.4,0.3-1.1-0.9-1.7c1.1-2.7,8.2-8,11.6-0.2
			C117.7,38.3,118.4,52.2,114.9,66z"/>
		<path class="st7" d="M479.1,44.4c-0.2-0.1-0.4-0.1-0.6-0.1c-0.6,0-1.1,0.3-1.3,0.9c-2,4.3-5.6,10.4-10.8,18.1
			c-5.9,8.7-10,13-12.5,13c-0.6,0-0.9-1-0.9-2.9c0-3.6,0.7-9.2,2.1-16.8c1.3-7.5,3.1-16.2,5.3-26.2c1.8,0.4,3.4,1,4.9,1.7
			c0.2,0.1,0.4,0.1,0.6,0.1c0.6,0,1.1-0.3,1.4-0.9c0.1-0.2,0.1-0.4,0.1-0.6c0-1.2-2.1-2.3-6.4-3.2c1-4.3,1.5-6.5,1.5-6.7
			c0-0.3-0.1-0.6-0.4-0.8c-3-3-6.8-4.4-11.5-4.4c-0.7,0-1.1,0.4-1.3,1.1c-0.6,2.1-1.4,5.8-2.6,11.1c-2.2,0.6-4.3,1.5-6.2,2.6
			c-0.5,0.3-0.7,0.7-0.7,1.3c0,0.3,0.1,0.5,0.2,0.8c0.3,0.5,0.7,0.7,1.3,0.7c0.3,0,0.6-0.1,0.8-0.2c1.2-0.7,2.5-1.3,3.9-1.8
			c-1.1,5.9-2,11.2-2.6,16.2c-2.1,4.2-5,8.8-8.7,14c-4.9,6.8-9.5,11.6-13.9,14.6c-2.4,1.6-4.6,2.5-6.7,2.5c-2.5,0-4.3-1.6-5.6-4.8
			c-1.1-2.6-1.6-5.7-1.6-9.1c0-1.1,0-2.2,0.1-3.4c3.3-0.3,6.1-1.3,8.4-2.8c2.3-1.6,4.1-3.5,5.4-5.7c1.3-2.3,2.1-4.2,2.3-5.8
			c0.2-1.6,0.3-2.7,0.3-3.4c0-4.4-1.5-7.8-4.4-10.2c-1.7-1.4-4-2.1-6.7-2.1s-5,0.9-7,2.7s-3.7,4-5,6.7c-1.2,2.5-2.2,5.1-2.8,7.8
			c-1.7,3.6-3.8,7.6-6.3,11.9c-3.9,6.9-7.6,11.9-11.2,15.2c-1.9,1.7-3.8,2.6-5.5,2.6s-3.1-1.1-4.4-3.3s-2.4-5.2-3.4-8.9
			c-1-3.8-1.9-8.1-2.7-12.9c2.9-2.3,5.2-5,6.9-8.3c1.7-3.3,2.5-6.8,2.5-10.7c0-0.6-0.4-1.1-1.2-1.5c-0.8-0.4-1.7-0.6-2.8-0.8
			c-1.1-0.2-2-0.2-2.9-0.2c-1.2,0-1.8,0.6-1.8,1.9c0,5.4-0.9,9.7-2.7,12.9c-1.8,3.2-4.4,5.9-7.8,8c1.1-16.3,4.1-32.5,9-48.5
			c0-0.4-0.1-0.7-0.4-0.9c-3.1-3-6.9-4.4-11.5-4.4c-0.7,0-1.1,0.4-1.3,1.1c-3.5,14.6-5,20.1-5.4,27.7c-0.4,7.5-1.3,16.5-1.3,20.7
			c0,1.2,0,2.6,0,4.2c-1.7,3.4-3.8,6.9-6.3,10.5c-1.8,2.5-3.9,5-6.3,7.4c-3.1,3.1-5.8,4.6-8.2,4.6c-1,0-1.4-0.9-1.4-2.6
			c0-2.4,0.8-6.2,2.3-11.3c2-6.6,4.4-13.6,7.3-20.9c0.6-1.4,0.8-2.6,0.8-3.4c0-0.9-0.3-1.5-0.8-1.8c-1-0.7-3-1.1-5.9-1.2
			c-4.8-0.2-8.9-1-12.2-2.4c0.8-2.9,1.3-4.9,1.4-6.2c0.1-1.3,0.1-2.1,0.1-2.5c0-4-0.6-5.1-3.3-5c-2.6,0-5.3,1.9-5.5,7
			c-0.1,3.8,0.2,8.4,3,10c-1.3,4.2-5.5,12.8-8.4,17.9c-2.4,4.3-5.3,8.7-8.6,13.3c-4.6,6.4-7.9,9.6-10.1,9.6c-0.4,0-0.6-0.7-0.6-2
			c0-2.9,1-8.8,2.9-17.9c1.8-8.6,3.3-15,4.6-19.2c0.6-2,0.9-3.3,0.9-3.9c0-1.1-1.4-2.4-4.2-3.7c-2.3-1.1-4.9-1.7-7.7-1.7
			c-0.7,0-1.1,0.4-1.4,1.1c-0.5,1.5-1.1,4.1-1.9,7.8c-1.1-1.7-2.6-3.1-4.4-4.1s-3.7-1.5-5.7-1.5c-4.3,0-7.7,2.4-10.3,7.3
			c-1.3,2.3-2.6,4.9-3.6,7.6c-1.5,2.7-3.4,6-5.7,9.8c-4.5,7.5-8.5,12.9-11.9,16.5c-1.9,1.9-3.4,2.9-4.7,2.9c-0.4,0-0.5-0.7-0.5-2
			c0-2.7,0.8-8.2,2.3-16.5c1.4-7.9,2.2-14.1,2.2-18.4c0-10.3-3.5-15.5-10.5-15.5c-2.7,0-5.1,0.9-7.2,2.6c-2.2,1.7-4.1,3.9-5.7,6.7
			c-1.7,2.8-3.1,8.8-4.3,12c-0.7-7.7-4.2-11.6-10.5-11.6c-2.4,0-4.5,0.8-6.3,2.3c-1.7,1.5-3.2,3.5-4.4,6s-2.1,5.3-2.9,8.3
			c1.2-8.4,2-17.3,2.2-18.7v-0.2c0-0.4-0.2-0.7-0.5-0.9c-2.9-2.1-6.1-3.2-9.6-3.2c-0.8,0-1.5,0-2.2,0.1s-1.2,0.5-1.3,1.2
			c-0.3,1.7-0.6,8.4-1.1,11.9c-0.4,3.5-0.7,6.6-0.8,9.3s-0.2,4.7-0.2,6c0,13.9,1.6,26.5,7.8,26.5c1.2,0,3.8-0.9,4.3-2.4
			c0.7-2.4,1.2-6.4,1.4-9.9c0.3-4.3,0.8-12.5,2-16.8c2.5-9,4.8-13.4,6.9-13.4c1.6,0,2.5,2.3,2.5,6.9c0,1.9-0.1,4.1-0.3,6.4
			c-0.2,2.5-0.3,5.5-0.3,9v1.5c0,3.5,0.7,9.4,1.9,11.8c1.3,2.7,2.6,4.2,5.7,4.2c0.7,0,1.9-0.2,2.2-0.4c0.4-0.3,0.7-1.5,0.9-3.6
			c0.1-1.9,0.4-4.3,0.9-7l1.1-8.9c0.7-4.1,1.9-8.1,3.4-12.2s3.2-10.5,4.9-13.3s3.3-4.2,4.7-4.2c1.1,0,1.8,0.8,2.1,2.3
			c0.2,1.5,0.4,3.1,0.4,4.7c0,2.8-0.3,7.1-0.9,13c-0.7,7-1.1,12.8-1.1,17.5c0,10.2,2.3,15.3,6.9,15.3c4.7,0,9.8-4,15.4-12.1
			c3.1-4.5,6-9,8.6-13.4c-0.5,4.5-0.4,7.5-0.2,10.8c0.2,3.1,1.7,7.5,3,9.5c1.6,2.4,4.5,4,6.8,4c4.7,0,10.6-9.3,13-14.1
			c0,5.1,0.6,8.8,1.9,11.1c0.8,1.4,1.7,2.5,2.8,3.2c1.1,0.7,2.5,1,4.2,1c3.3,0,7.5-3.3,12.6-9.9c3.3-4.3,14.2-19.7,19.6-35.2
			l0.6,0.2c2.9,0.8,4.3,2.3,4.3,4.3c0,0.8-0.1,1.7-0.4,2.7c-1.4,5.2-2.4,10.1-3.1,14.6c-0.7,4.6-1,8.2-1,10.8c0,2.5,0.2,4.8,0.7,6.9
			c0.8,3.6,2.9,5.5,6.2,5.5c4.1,0,8.8-2.6,13.9-7.9c4.3-4.5,7.9-9.2,10.8-14.2c-0.1,7.2-0.2,15.4,0.4,21c0,0.5,0.3,0.9,0.9,1.2
			c0.6,0.3,1.2,0.5,1.9,0.6c0.7,0.1,1.2,0.2,1.7,0.2s1.1-0.1,1.8-0.2c0.8-0.1,1.4-0.3,2-0.6c0.6-0.3,0.9-0.8,0.9-1.4v-7.4
			c0-3.4,1.1-12.9,1.3-16.2c1.5-0.4,3-0.8,4.3-1.4c0.1,1.7,0.3,3.7,0.6,6c0.3,2.3,0.7,4.6,1.3,7c0.6,2.4,1.4,4.6,2.3,6.6
			c1,2,2.2,3.7,3.8,4.9c1.5,1.3,3.4,1.9,5.7,1.9c4.3,0,8.4-2.4,12.5-7.2c2.7-3.2,6-8.3,9.9-15.2c0.6-1.1,1.2-2.2,1.8-3.2
			c0,0.1,0,0.1,0,0.2c0,5.2,0.7,9.7,2.2,13.5c1.5,3.8,3.4,6.7,5.9,8.8c2.5,2.1,5.3,3.1,8.4,3.1s6-0.9,8.8-2.7c2.8-1.8,5.5-4,8-6.8
			s5-5.8,7.3-9c2.2-3.1,4.2-6.1,5.9-8.9c-0.3,3.2-0.4,6.2-0.4,8.9c0,4.8,0.4,8.8,1.1,11.8c1.1,4.4,3.4,6.6,6.8,6.6
			c2.9,0,5.6-1.3,8.2-3.9c1.1-1.1,2.2-2.3,3.2-3.5c4.4-5.4,8.6-11.5,12.7-18.4c3.8-6.4,5.7-9.9,5.7-10.7
			C480,45.2,479.7,44.7,479.1,44.4z M410,48.3c1.1-3,2.4-5.5,3.8-7.4c1.4-2,2.9-3,4.4-3c1.4,0,2.1,1.7,2.1,5c0,4.2-1.5,7.9-4.4,10.9
			c-1.9,2-4.7,3.3-8.3,3.8C408.1,54.5,408.9,51.3,410,48.3z M272.3,45.5c-0.3,1.6-0.5,3.2-0.7,4.9c-0.5,3.5-1.1,6.1-1.6,7.7
			c-2.5,7.8-6.6,16.9-9.9,17c-4.5,0.2-3.1-10.4-3-13c0.1-5.3,1.4-10.2,2.5-13.5c1.1-3.4,2.3-5.9,3.9-7.5c1.5-1.6,3-2.4,4.5-2.4
			c1,0,2,0.5,3,1.4c0.5,0.4,0.9,0.9,1.2,1.5c0.3,0.6,0.4,1.2,0.4,1.9C272.4,44.3,272.4,44.9,272.3,45.5z"/>
	</g>
</g>
</svg>
