<?xml version="1.0" encoding="utf-8"?>
<!-- Generator: Adobe Illustrator 25.2.0, SVG Export Plug-In . SVG Version: 6.00 Build 0)  -->
<svg version="1.1" id="圖層_1" xmlns="http://www.w3.org/2000/svg" xmlns:xlink="http://www.w3.org/1999/xlink" x="0px" y="0px"
	 viewBox="0 0 300 161.8" style="enable-background:new 0 0 300 161.8;" xml:space="preserve">
<style type="text/css">
	.st0{fill:#FFFFFF;}
</style>
<g id="eco_market">
	<path class="st0" d="M248.1,30.4c-0.3-0.1-0.6-0.2-0.9-0.2c-0.8,0-1.6,0.4-1.9,1.2c-1.9,4.1-4.2,8-6.7,11.6
		c-6.3,8.5-12,12.8-17.2,12.8c-1.2,0-2.3-0.4-3.3-0.9c5.7-16.5,7.2-39.7-3.1-51c-6.2-6.8-16.5-4.1-22.1,3.7
		c-3.2-1.7-6.5-3.1-7.5-2.1c-1.6,1.6-2.4,10.4-2.7,11.4c-1.3,6.3-2.2,12.7-2.8,19.1c-1.5,2.8-3.2,5.5-5,8.1
		c-6.6,9.8-13.5,17.2-20.8,22.2c-3.8,2.7-7.5,4-10.9,4s-5.9-2.2-7.6-6.6c-1.5-3.9-2.3-8.1-2.2-12.3c0-3.9,0.5-7.9,1.3-11.7
		c0.8-4,2-7.9,3.6-11.7c1.2-3.2,2.9-6.2,4.9-8.9c1.8-2.3,3.6-3.5,5.5-3.5c0.7,0.1,1.4,0.5,1.8,1.1c0.7,0.9,1,2.1,0.9,3.2l-0.1,1.1
		c0,0.5,0.2,1,0.5,1.4c0.4,0.5,1,0.7,1.6,0.7c0.5,0,0.9-0.2,1.3-0.5c0.4-0.3,0.7-0.8,0.7-1.3c0.1-0.6,0.1-1.1,0.1-1.6
		c0.1-3.5-1.2-6.8-3.6-9.4c-2.7-3-6.5-4.5-11.3-4.5c-3.5,0-6.9,1.2-9.5,3.6c-2.9,2.6-5.2,5.7-6.8,9.1c-0.9,1.8-1.6,3.6-2.3,5.5
		c-0.7,0-1.4,0.5-1.6,1.2c-3.6,7.5-8,14.7-13,21.4c-6.7,9.2-13,15.8-19,19.9c-3.3,2.2-6.3,3.4-9.1,3.3c-3.3,0-5.9-2.2-7.6-6.5
		c-1.5-4-2.3-8.2-2.2-12.4c0-1.5,0.1-3,0.2-4.7c4.1-0.3,8-1.6,11.4-3.9c3-2,5.5-4.7,7.3-7.8c1.5-2.4,2.6-5.1,3.1-7.9
		c0.3-1.5,0.4-3.1,0.5-4.7c0-6-2-10.7-6-13.9c-2.6-2-5.9-3-9.2-2.8c-3.6-0.1-7,1.2-9.6,3.6c-2.9,2.6-5.2,5.7-6.9,9.2
		c-1.8,3.7-3.2,7.6-4.1,11.7c-0.9,3.7-1.3,7.4-1.4,11.2c-0.1,6.3,0.9,12.5,3,18.4c1.6,4.6,4.4,8.7,8.1,11.9
		c3.2,2.7,7.3,4.2,11.5,4.2c4.3,0,8.4-1.3,12-3.6c4-2.6,7.7-5.7,10.9-9.3c3.6-3.9,6.9-8,10-12.2c3.5-4.8,6.4-9.4,8.9-13.6
		c-0.2,1.6-0.3,3.2-0.3,4.8c0,10.7,2,19,6,25c3.6,5.8,10,9.2,16.8,9c3.5,0,6.9-0.9,10-2.4c3.4-1.8,6.5-3.9,9.3-6.5
		c3.2-2.8,6.2-5.8,9-9.1c3.6-4.1,7-8.5,10-13.1c0.2,6.1,1.4,12,3.4,17.7c5.2,14.4,20.6,19.1,29.7,4.3c1.6-2.6,2.9-5.3,3.9-8.1
		c1.4,0.8,3,1.3,4.7,1.3c6,0,12.8-4.8,20.3-14.5c2.7-3.8,5.1-7.8,7.1-12.1c0.1-0.3,0.2-0.6,0.2-0.9
		C249.4,31.4,248.9,30.7,248.1,30.4z M73.6,29.2c1.2-3.6,3-7,5.2-10.1c2-2.7,3.9-4,5.9-4s2.8,2.3,2.8,6.8c0.1,5.5-2.1,10.9-6,14.8
		c-2.6,2.8-6.3,4.5-11.2,5.2C71,37.6,72.1,33.4,73.6,29.2z M202,67h-0.2c-1.8,0-4.1-2.1-5.4-4.7s-4-7.3-1.3-27.9
		c2.8,8.4,9.1,18,15,21.8C207.9,63.2,205.1,66.9,202,67z M211.3,52.1c-4.6-3.4-12.1-14.7-14.4-26.5c0.5-5.1,1.9-12.6,1.9-13
		c0.2-1-0.3-2-1.3-2.4c1.5-3.6,11.2-10.9,15.8-0.2C215.2,14.4,216.1,33.3,211.3,52.1L211.3,52.1z"/>
	<path class="st0" d="M299.1,124.8c-0.2-0.1-0.4-0.1-0.6-0.1c-0.6,0-1.1,0.3-1.3,0.8c-3,6-6.4,11.8-10.3,17.3
		c-5.6,8.3-9.6,12.4-12,12.4c-0.6,0-0.9-0.9-0.9-2.8c0-3.4,0.7-8.8,2-16.1c1.2-7.2,2.9-15.5,5.1-25.1c1.6,0.3,3.2,0.9,4.7,1.6
		c0.2,0.1,0.4,0.1,0.6,0.1c0.6,0,1.1-0.3,1.3-0.8c0.1-0.2,0.1-0.4,0.1-0.6c0-1.2-2-2.2-6.1-3.1c1-4.1,1.5-6.2,1.5-6.4
		c0-0.3-0.1-0.6-0.4-0.8c-2.9-2.9-6.9-4.4-10.9-4.2c-0.6,0-1.1,0.4-1.3,1c-0.6,2-1.4,5.5-2.5,10.6c-2.1,0.5-4.1,1.4-5.9,2.5
		c-0.4,0.2-0.7,0.7-0.7,1.2c0,0.3,0.1,0.5,0.2,0.8c0.2,0.5,0.7,0.7,1.2,0.7c0.3,0,0.6-0.1,0.8-0.2c1.2-0.7,2.4-1.3,3.8-1.8
		c-1,5.6-1.9,10.7-2.5,15.5c-2.4,4.7-5.2,9.2-8.4,13.4c-4.7,6.5-9.1,11.1-13.3,14c-1.8,1.4-4.1,2.2-6.4,2.4c-2.4,0-4.1-1.5-5.4-4.6
		c-1.1-2.8-1.6-5.7-1.6-8.7c0-1,0-2.1,0.1-3.3c2.9-0.2,5.6-1.1,8-2.7c2.1-1.4,3.9-3.3,5.1-5.5c1.1-1.7,1.8-3.6,2.2-5.5
		c0.2-1.1,0.3-2.2,0.3-3.3c0-4.2-1.4-7.5-4.2-9.7c-1.9-1.4-4.1-2.1-6.4-2c-2.5,0-4.9,0.9-6.7,2.5c-2,1.8-3.7,4-4.8,6.4
		c-1.2,2.4-2.1,4.9-2.7,7.4c-1.6,3.4-3.6,7.2-6,11.4c-3.7,6.6-7.3,11.4-10.7,14.5c-1.9,1.7-3.6,2.5-5.2,2.5s-3-1-4.2-3.1
		c-1.4-2.7-2.5-5.6-3.2-8.5c-0.9-3.6-1.8-7.7-2.6-12.4c2.8-2.1,5-4.8,6.6-7.9c1.6-3.2,2.5-6.7,2.4-10.2c0-0.6-0.4-1.1-1.1-1.4
		c-0.8-0.4-1.7-0.6-2.6-0.8c-0.9-0.2-1.9-0.2-2.8-0.2c-0.9-0.1-1.6,0.5-1.7,1.3c0,0.1,0,0.3,0,0.4c0,5.2-0.8,9.3-2.6,12.4
		c-1.8,3.2-4.3,5.8-7.5,7.7c1.1-15.8,4-31.3,8.6-46.4c0-0.3-0.1-0.7-0.4-0.9c-2.9-2.8-6.9-4.4-11-4.2c-0.6,0-1.2,0.5-1.2,1.1
		c-3.3,14-4.8,19.3-5.2,26.4s-1.2,15.8-1.2,19.8c0,1.2,0,2.5,0,4c-1.8,3.5-3.8,6.8-6,10c-1.8,2.5-3.8,4.9-6,7.1
		c-2.9,2.9-5.5,4.4-7.9,4.4c-0.9,0-1.4-0.8-1.4-2.4c0-2.3,0.7-5.9,2.2-10.8c1.9-6.3,4.2-13,7-20c0.5-1,0.7-2.2,0.8-3.3
		c0.1-0.7-0.2-1.3-0.8-1.7c-1-0.7-2.8-1-5.6-1.1c-4,0-8-0.7-11.8-2.1c0.6-1.9,1-3.9,1.3-5.9c0.1-1.2,0.1-2,0.1-2.4
		c0-3.9-0.6-4.9-3.2-4.8s-5.1,1.8-5.2,6.7c-0.1,3.7,0.2,8.1,2.9,9.6c-1.3,4-5.3,12.3-8.1,17.1c-2.5,4.4-5.3,8.7-8.2,12.8
		c-4.4,6.1-7.6,9.2-9.7,9.2c-0.4,0-0.6-0.6-0.6-1.9c0-2.7,0.9-8.4,2.7-17.1c1.7-8.2,3.2-14.4,4.4-18.4c0.4-1.2,0.7-2.5,0.8-3.7
		c0-1.1-1.3-2.3-4-3.6c-2.3-1.1-4.8-1.6-7.3-1.6c-0.6,0-1.2,0.4-1.3,1c-0.4,1.4-1,3.9-1.8,7.4c-1-1.6-2.5-2.9-4.2-3.9
		c-1.7-0.9-3.5-1.4-5.4-1.4c-4.1,0-7.4,2.3-9.9,7c-1.3,2.4-2.5,4.8-3.4,7.3c-1.4,2.6-3.2,5.7-5.4,9.4c-4.3,7.1-8.1,12.4-11.4,15.8
		c-1.8,1.9-3.3,2.8-4.5,2.8c-0.3,0-0.5-0.6-0.5-1.9c0-2.6,0.7-7.8,2.2-15.8c1.2-5.8,1.9-11.7,2.1-17.6c0-9.9-3.4-14.8-10.1-14.8
		c-2.5,0-5,0.9-6.9,2.4c-2.2,1.8-4.1,4-5.5,6.4c-1.6,2.6-3,8.4-4.1,11.5c-0.7-7.4-4-11.1-10.1-11.1c-2.2-0.1-4.3,0.7-6,2.2
		c-1.8,1.6-3.2,3.6-4.2,5.8c-1.2,2.5-2.1,5.2-2.7,7.9c1.2-8,1.9-16.6,2.1-17.8v-0.2c0-0.3-0.2-0.7-0.5-0.8c-2.6-2-5.9-3.1-9.2-3.1
		c-0.7,0-1.4,0-2.1,0.1c-0.6,0-1.2,0.5-1.2,1.2c-0.3,1.7-0.6,8-1,11.4s-0.6,6.3-0.8,8.9C0,132.1,0,134,0,135.3
		c0,13.2,1.5,25.4,7.5,25.4c1.2,0,3.6-0.9,4.1-2.3c0.8-3.1,1.2-6.3,1.3-9.5c0.2-4.1,0.7-11.9,1.9-16.1c2.4-8.6,4.6-12.8,6.6-12.8
		c1.6,0,2.4,2.2,2.4,6.6c0,1.8-0.1,3.9-0.3,6.2s-0.3,5.3-0.3,8.6v1.5c0,3.3,0.6,9,1.8,11.3c1.3,2.6,2.5,4,5.4,4
		c0.7,0,1.4-0.1,2.1-0.3c0.4-0.3,0.7-1.4,0.8-3.4c0.2-2.3,0.5-4.5,0.9-6.7l1-8.5c0.7-4,1.8-7.9,3.2-11.7c1.5-3.9,3-10,4.7-12.7
		s3.2-4,4.5-4c1.1,0,1.8,0.7,2,2.2c0.2,1.5,0.4,3,0.3,4.5c0,2.7-0.3,6.8-0.9,12.4c-0.7,6.7-1,12.3-1,16.7c0,9.7,2.2,14.6,6.6,14.6
		s9.3-3.9,14.7-11.6c3-4.3,5.7-8.6,8.2-12.8c-0.4,3.4-0.4,6.9-0.2,10.3c0.3,3.2,1.3,6.3,2.8,9.1c1.5,2.2,3.9,3.6,6.5,3.8
		c4.5,0,10.1-8.9,12.4-13.4c0,4.9,0.6,8.4,1.8,10.6c0.6,1.2,1.5,2.2,2.7,3c1.2,0.7,2.6,1,4,1c3.2,0,7.2-3.2,12-9.5
		c3.2-4.1,13.6-18.9,18.8-33.6l0.6,0.2c2.8,0.8,4.1,2.2,4.1,4.1c0,0.9-0.2,1.7-0.4,2.6c-1.2,4.6-2.2,9.3-2.9,14
		c-0.5,3.4-0.9,6.9-0.9,10.3c0,2.2,0.2,4.5,0.7,6.6c0.8,3.5,2.7,5.2,5.9,5.2c4,0,8.4-2.5,13.3-7.6c4-4.1,7.5-8.6,10.3-13.6
		c-0.1,6.9-0.2,14.8,0.4,20c0,0.5,0.4,1,0.8,1.2c0.6,0.3,1.2,0.5,1.8,0.6c0.5,0.1,1.1,0.2,1.6,0.2c0.6,0,1.2-0.1,1.8-0.2
		c0.7-0.1,1.4-0.3,2-0.6c0.5-0.2,0.9-0.8,0.9-1.3l-0.1-7.1c0-3.3,1.1-12.3,1.2-15.5c1.4-0.3,2.8-0.8,4.1-1.4
		c0.1,1.7,0.3,3.6,0.6,5.8c0.3,2.2,0.7,4.5,1.2,6.7c0.5,2.2,1.3,4.3,2.2,6.3c0.8,1.8,2.1,3.4,3.6,4.7c1.5,1.2,3.5,1.9,5.4,1.8
		c4.1,0,8.1-2.3,12-6.9c3.6-4.6,6.8-9.4,9.5-14.5l1.7-3.1c0,0.1,0,0.1,0,0.2c-0.1,4.4,0.6,8.8,2.1,12.9c1.1,3.2,3.1,6.1,5.7,8.4
		c2.2,1.9,5.1,3,8.1,2.9c3,0,5.9-0.9,8.4-2.5c2.8-1.8,5.4-4,7.6-6.5c2.5-2.7,4.8-5.6,7-8.6c2.2-3,4-5.8,5.6-8.5
		c-0.2,3.1-0.4,5.9-0.4,8.6c-0.1,3.8,0.2,7.6,1,11.3c1,4.2,3.2,6.3,6.5,6.3c2.7,0,5.3-1.2,7.8-3.7c1.1-1.1,2.1-2.2,3-3.3
		c4.4-5.6,8.5-11.4,12.1-17.6c3.6-6.1,5.4-9.5,5.4-10.3C300,125.6,299.7,125,299.1,124.8z M233.1,128.6c0.9-2.5,2.1-4.9,3.6-7.1
		c1.4-1.9,2.8-2.8,4.2-2.8s2,1.6,2,4.8c0.1,3.9-1.4,7.6-4.2,10.4c-2.1,2.1-4.9,3.4-7.9,3.7C231.3,134.5,232,131.5,233.1,128.6
		L233.1,128.6z M101.3,125.9c-0.2,1.5-0.5,3.1-0.7,4.7c-0.3,2.5-0.8,4.9-1.5,7.3c-2.4,7.5-6.3,16.1-9.4,16.3c-4.3,0.2-3-10-2.9-12.4
		c0.2-4.4,1-8.8,2.4-13c0.7-2.6,2-5.1,3.7-7.2c1.5-1.5,2.9-2.3,4.3-2.3c1.1,0.1,2.2,0.6,2.9,1.4c0.5,0.4,0.9,0.9,1.1,1.4
		c0.3,0.6,0.4,1.2,0.4,1.8C101.5,124.7,101.4,125.3,101.3,125.9z"/>
</g>
</svg>
