<svg id="圖層_1" data-name="圖層 1" xmlns="http://www.w3.org/2000/svg" viewBox="0 0 300 161.8"><defs><style>.cls-1{fill:#747474;}</style></defs><g id="eco_market" data-name="eco market"><path class="cls-1" d="M248.1,30.4a2.92,2.92,0,0,0-.9-.2,2,2,0,0,0-1.9,1.2A77.86,77.86,0,0,1,238.6,43c-6.3,8.5-12,12.8-17.2,12.8a7.39,7.39,0,0,1-3.3-.9c5.7-16.5,7.2-39.7-3.1-51-6.2-6.8-16.5-4.1-22.1,3.7-3.2-1.7-6.5-3.1-7.5-2.1-1.6,1.6-2.4,10.4-2.7,11.4A175.8,175.8,0,0,0,179.9,36a83.89,83.89,0,0,1-5,8.1c-6.6,9.8-13.5,17.2-20.8,22.2-3.8,2.7-7.5,4-10.9,4s-5.9-2.2-7.6-6.6a32.28,32.28,0,0,1-2.2-12.3,57.45,57.45,0,0,1,1.3-11.7A60.81,60.81,0,0,1,138.3,28a36.7,36.7,0,0,1,4.9-8.9c1.8-2.3,3.6-3.5,5.5-3.5a2.65,2.65,0,0,1,1.8,1.1,4.62,4.62,0,0,1,.9,3.2l-.1,1.1a2.39,2.39,0,0,0,.5,1.4,2,2,0,0,0,1.6.7,2.11,2.11,0,0,0,1.3-.5,1.71,1.71,0,0,0,.7-1.3,9.15,9.15,0,0,0,.1-1.6,13.21,13.21,0,0,0-3.6-9.4c-2.7-3-6.5-4.5-11.3-4.5a13.9,13.9,0,0,0-9.5,3.6,28.58,28.58,0,0,0-6.8,9.1A53.14,53.14,0,0,0,122,24a1.71,1.71,0,0,0-1.6,1.2,130,130,0,0,1-13,21.4c-6.7,9.2-13,15.8-19,19.9-3.3,2.2-6.3,3.4-9.1,3.3-3.3,0-5.9-2.2-7.6-6.5a33.13,33.13,0,0,1-2.2-12.4c0-1.5.1-3,.2-4.7a23.23,23.23,0,0,0,11.4-3.9,23.68,23.68,0,0,0,7.3-7.8,22.49,22.49,0,0,0,3.1-7.9,35.59,35.59,0,0,0,.5-4.7c0-6-2-10.7-6-13.9a13.79,13.79,0,0,0-9.2-2.8,13.52,13.52,0,0,0-9.6,3.6A29.67,29.67,0,0,0,60.3,18a52.37,52.37,0,0,0-4.1,11.7,52.82,52.82,0,0,0-1.4,11.2,52.24,52.24,0,0,0,3,18.4,27.84,27.84,0,0,0,8.1,11.9,17.89,17.89,0,0,0,11.5,4.2,22.21,22.21,0,0,0,12-3.6,53.7,53.7,0,0,0,10.9-9.3,143.89,143.89,0,0,0,10-12.2c3.5-4.8,6.4-9.4,8.9-13.6a38.66,38.66,0,0,0-.3,4.8c0,10.7,2,19,6,25a19.08,19.08,0,0,0,16.8,9,23,23,0,0,0,10-2.4,43.12,43.12,0,0,0,9.3-6.5,86,86,0,0,0,9-9.1,116.17,116.17,0,0,0,10-13.1,59.09,59.09,0,0,0,3.4,17.7c5.2,14.4,20.6,19.1,29.7,4.3a43.06,43.06,0,0,0,3.9-8.1,9.47,9.47,0,0,0,4.7,1.3c6,0,12.8-4.8,20.3-14.5A76.73,76.73,0,0,0,249.1,33a2.92,2.92,0,0,0,.2-.9A1.67,1.67,0,0,0,248.1,30.4ZM73.6,29.2a38.69,38.69,0,0,1,5.2-10.1c2-2.7,3.9-4,5.9-4s2.8,2.3,2.8,6.8a20.54,20.54,0,0,1-6,14.8c-2.6,2.8-6.3,4.5-11.2,5.2A71.94,71.94,0,0,1,73.6,29.2ZM202,67h-.2c-1.8,0-4.1-2.1-5.4-4.7s-4-7.3-1.3-27.9c2.8,8.4,9.1,18,15,21.8C207.9,63.2,205.1,66.9,202,67Zm9.3-14.9c-4.6-3.4-12.1-14.7-14.4-26.5.5-5.1,1.9-12.6,1.9-13a2.1,2.1,0,0,0-1.3-2.4C199,6.6,208.7-.7,213.3,10c1.9,4.4,2.8,23.3-2,42.1Z"/><path class="cls-1" d="M299.1,124.8a1.27,1.27,0,0,0-.6-.1,1.34,1.34,0,0,0-1.3.8,131.5,131.5,0,0,1-10.3,17.3c-5.6,8.3-9.6,12.4-12,12.4-.6,0-.9-.9-.9-2.8,0-3.4.7-8.8,2-16.1s2.9-15.5,5.1-25.1a20.07,20.07,0,0,1,4.7,1.6,1.27,1.27,0,0,0,.6.1,1.34,1.34,0,0,0,1.3-.8,1.27,1.27,0,0,0,.1-.6c0-1.2-2-2.2-6.1-3.1,1-4.1,1.5-6.2,1.5-6.4a.91.91,0,0,0-.4-.8A14.45,14.45,0,0,0,271.9,97a1.38,1.38,0,0,0-1.3,1c-.6,2-1.4,5.5-2.5,10.6a20.57,20.57,0,0,0-5.9,2.5,1.39,1.39,0,0,0-.7,1.2,2.35,2.35,0,0,0,.2.8,1.21,1.21,0,0,0,1.2.7,1.88,1.88,0,0,0,.8-.2,22.17,22.17,0,0,1,3.8-1.8c-1,5.6-1.9,10.7-2.5,15.5a88.55,88.55,0,0,1-8.4,13.4c-4.7,6.5-9.1,11.1-13.3,14a12.23,12.23,0,0,1-6.4,2.4c-2.4,0-4.1-1.5-5.4-4.6a23.54,23.54,0,0,1-1.6-8.7c0-1,0-2.1.1-3.3a16.27,16.27,0,0,0,8-2.7,15.8,15.8,0,0,0,5.1-5.5,16.29,16.29,0,0,0,2.2-5.5,18.41,18.41,0,0,0,.3-3.3c0-4.2-1.4-7.5-4.2-9.7a10,10,0,0,0-6.4-2,10.1,10.1,0,0,0-6.7,2.5,20,20,0,0,0-4.8,6.4,34.7,34.7,0,0,0-2.7,7.4q-2.4,5.1-6,11.4c-3.7,6.6-7.3,11.4-10.7,14.5-1.9,1.7-3.6,2.5-5.2,2.5s-3-1-4.2-3.1a38,38,0,0,1-3.2-8.5c-.9-3.6-1.8-7.7-2.6-12.4a22.91,22.91,0,0,0,6.6-7.9,21.56,21.56,0,0,0,2.4-10.2,1.57,1.57,0,0,0-1.1-1.4,11.22,11.22,0,0,0-2.6-.8,13.2,13.2,0,0,0-2.8-.2,1.5,1.5,0,0,0-1.7,1.3v.4c0,5.2-.8,9.3-2.6,12.4a20.52,20.52,0,0,1-7.5,7.7,208.66,208.66,0,0,1,8.6-46.4,1.09,1.09,0,0,0-.4-.9,14.91,14.91,0,0,0-11-4.2,1.2,1.2,0,0,0-1.2,1.1c-3.3,14-4.8,19.3-5.2,26.4s-1.2,15.8-1.2,19.8v4a91.24,91.24,0,0,1-6,10,57.8,57.8,0,0,1-6,7.1c-2.9,2.9-5.5,4.4-7.9,4.4-.9,0-1.4-.8-1.4-2.4,0-2.3.7-5.9,2.2-10.8,1.9-6.3,4.2-13,7-20a9.4,9.4,0,0,0,.8-3.3,1.69,1.69,0,0,0-.8-1.7c-1-.7-2.8-1-5.6-1.1a34.14,34.14,0,0,1-11.8-2.1,38.75,38.75,0,0,0,1.3-5.9c.1-1.2.1-2,.1-2.4,0-3.9-.6-4.9-3.2-4.8s-5.1,1.8-5.2,6.7c-.1,3.7.2,8.1,2.9,9.6a117.64,117.64,0,0,1-8.1,17.1c-2.5,4.4-5.3,8.7-8.2,12.8-4.4,6.1-7.6,9.2-9.7,9.2-.4,0-.6-.6-.6-1.9q0-4,2.7-17.1c1.7-8.2,3.2-14.4,4.4-18.4a16.34,16.34,0,0,0,.8-3.7c0-1.1-1.3-2.3-4-3.6a16.87,16.87,0,0,0-7.3-1.6,1.3,1.3,0,0,0-1.3,1c-.4,1.4-1,3.9-1.8,7.4a12.12,12.12,0,0,0-4.2-3.9,11.43,11.43,0,0,0-5.4-1.4c-4.1,0-7.4,2.3-9.9,7a53.47,53.47,0,0,0-3.4,7.3c-1.4,2.6-3.2,5.7-5.4,9.4-4.3,7.1-8.1,12.4-11.4,15.8-1.8,1.9-3.3,2.8-4.5,2.8-.3,0-.5-.6-.5-1.9,0-2.6.7-7.8,2.2-15.8a104.41,104.41,0,0,0,2.1-17.6c0-9.9-3.4-14.8-10.1-14.8a11.33,11.33,0,0,0-6.9,2.4,24,24,0,0,0-5.5,6.4c-1.6,2.6-3,8.4-4.1,11.5-.7-7.4-4-11.1-10.1-11.1a8.44,8.44,0,0,0-6,2.2,17.28,17.28,0,0,0-4.2,5.8,36.85,36.85,0,0,0-2.7,7.9c1.2-8,1.9-16.6,2.1-17.8v-.2a.89.89,0,0,0-.5-.8,15.22,15.22,0,0,0-9.2-3.1,14.77,14.77,0,0,0-2.1.1,1.22,1.22,0,0,0-1.2,1.2c-.3,1.7-.6,8-1,11.4s-.6,6.3-.8,8.9c.2,2.3.2,4.2.2,5.5,0,13.2,1.5,25.4,7.5,25.4,1.2,0,3.6-.9,4.1-2.3a43.47,43.47,0,0,0,1.3-9.5c.2-4.1.7-11.9,1.9-16.1,2.4-8.6,4.6-12.8,6.6-12.8q2.4,0,2.4,6.6c0,1.8-.1,3.9-.3,6.2s-.3,5.3-.3,8.6v1.5c0,3.3.6,9,1.8,11.3,1.3,2.6,2.5,4,5.4,4a7.61,7.61,0,0,0,2.1-.3c.4-.3.7-1.4.8-3.4.2-2.3.5-4.5.9-6.7l1-8.5a67.51,67.51,0,0,1,3.2-11.7c1.5-3.9,3-10,4.7-12.7s3.2-4,4.5-4c1.1,0,1.8.7,2,2.2a22.71,22.71,0,0,1,.3,4.5c0,2.7-.3,6.8-.9,12.4a164.51,164.51,0,0,0-1,16.7c0,9.7,2.2,14.6,6.6,14.6s9.3-3.9,14.7-11.6c3-4.3,5.7-8.6,8.2-12.8a59.08,59.08,0,0,0-.2,10.3,24.13,24.13,0,0,0,2.8,9.1,8.71,8.71,0,0,0,6.5,3.8c4.5,0,10.1-8.9,12.4-13.4,0,4.9.6,8.4,1.8,10.6a7.74,7.74,0,0,0,2.7,3,7.92,7.92,0,0,0,4,1c3.2,0,7.2-3.2,12-9.5,3.2-4.1,13.6-18.9,18.8-33.6l.6.2c2.8.8,4.1,2.2,4.1,4.1a11.71,11.71,0,0,1-.4,2.6,133.73,133.73,0,0,0-2.9,14,71.63,71.63,0,0,0-.9,10.3,29,29,0,0,0,.7,6.6c.8,3.5,2.7,5.2,5.9,5.2,4,0,8.4-2.5,13.3-7.6A65,65,0,0,0,169,140c-.1,6.9-.2,14.8.4,20a1.48,1.48,0,0,0,.8,1.2,6.36,6.36,0,0,0,1.8.6,8.75,8.75,0,0,0,1.6.2,11,11,0,0,0,1.8-.2,6.64,6.64,0,0,0,2-.6,1.54,1.54,0,0,0,.9-1.3l-.1-7.1c0-3.3,1.1-12.3,1.2-15.5a19.85,19.85,0,0,0,4.1-1.4c.1,1.7.3,3.6.6,5.8s.7,4.5,1.2,6.7a33.54,33.54,0,0,0,2.2,6.3,13.75,13.75,0,0,0,3.6,4.7,8.2,8.2,0,0,0,5.4,1.8q6.15,0,12-6.9a97.74,97.74,0,0,0,9.5-14.5l1.7-3.1v.2a35.29,35.29,0,0,0,2.1,12.9,20,20,0,0,0,5.7,8.4,11.87,11.87,0,0,0,8.1,2.9,15.59,15.59,0,0,0,8.4-2.5,36.33,36.33,0,0,0,7.6-6.5,97.19,97.19,0,0,0,7-8.6c2.2-3,4-5.8,5.6-8.5-.2,3.1-.4,5.9-.4,8.6a47.55,47.55,0,0,0,1,11.3c1,4.2,3.2,6.3,6.5,6.3,2.7,0,5.3-1.2,7.8-3.7q1.65-1.65,3-3.3a152.37,152.37,0,0,0,12.1-17.6c3.6-6.1,5.4-9.5,5.4-10.3A1,1,0,0,0,299.1,124.8Zm-66,3.8a31.62,31.62,0,0,1,3.6-7.1c1.4-1.9,2.8-2.8,4.2-2.8s2,1.6,2,4.8a14.1,14.1,0,0,1-4.2,10.4,13,13,0,0,1-7.9,3.7,45.71,45.71,0,0,1,2.3-9Zm-131.8-2.7c-.2,1.5-.5,3.1-.7,4.7a45,45,0,0,1-1.5,7.3c-2.4,7.5-6.3,16.1-9.4,16.3-4.3.2-3-10-2.9-12.4a48.12,48.12,0,0,1,2.4-13,19.75,19.75,0,0,1,3.7-7.2c1.5-1.5,2.9-2.3,4.3-2.3a4.45,4.45,0,0,1,2.9,1.4,3.6,3.6,0,0,1,1.1,1.4,3.92,3.92,0,0,1,.4,1.8C101.5,124.7,101.4,125.3,101.3,125.9Z"/></g></svg>