<svg xmlns="http://www.w3.org/2000/svg" viewBox="0 0 444.45 290.94"><defs><style>.cls-1{fill:#fbdcc5;}.cls-2{fill:#fff;}.cls-3{fill:none;stroke:#fff;stroke-miterlimit:10;stroke-width:2px;}.cls-4{font-size:55px;font-family:NotoSansCJKtc-Medium-B5pc-H, Noto Sans CJK TC;letter-spacing:0.08em;}.cls-4,.cls-5{fill:#343434;}</style></defs><g id="eco_living" data-name="eco living"><path class="cls-1" d="M132.39,27.18C171-1.33,231.84-6,271.52,6.57,311.9,19.33,348.64,43.22,370,99.51,381,128.25,371.17,188.08,348.81,222,302.36,292.47,202.34,315.94,130,259.11S56.64,105.91,117.66,40.33A106.23,106.23,0,0,1,132.39,27.18Z"/><path class="cls-2" d="M227,59.45l-2-.05c.17-7,.34-15.7.52-24.43s.34-17.46.51-24.44l2,.05c-.17,7-.34,15.71-.51,24.43S227.19,52.47,227,59.45Z"/><path class="cls-2" d="M228,285l-2,0c.17-9.44.28-39.22,0-44.09l2-.11C228.31,245.64,228.2,275.52,228,285Z"/><path class="cls-2" d="M96.37,209.2l-1-1.73c4.22-2.44,12.54-7.18,20.58-11.76s16.24-9.24,20.43-11.67l1,1.73c-4.2,2.43-12.46,7.13-20.45,11.68S100.59,206.76,96.37,209.2Z"/><path class="cls-2" d="M287.82,79.74l-1.34-1.48C291.84,73.38,299.54,66.09,307,59s15.13-14.31,20.49-19.2l1.34,1.48c-5.34,4.87-13,12.14-20.46,19.18S293.2,74.85,287.82,79.74Z"/><path class="cls-2" d="M168.17,75.67c-3.86-4.78-9.82-11.8-15.59-18.58S140.84,43.27,137,38.46l1.56-1.25c3.86,4.78,9.82,11.8,15.59,18.58s11.74,13.82,15.61,18.62Z"/><path class="cls-2" d="M176.49,46.12A28.62,28.62,0,0,0,172.85,38,30.32,30.32,0,0,1,169,29.34l1.93-.52A28.62,28.62,0,0,0,174.56,37a30.45,30.45,0,0,1,3.86,8.65Z"/><path class="cls-2" d="M260.18,44l-1.83-.8c2.16-4.93,3.47-8.45,4.74-11.86s2.61-7,4.79-12l1.83.8C267.56,25.1,266.24,28.62,265,32S262.36,39,260.18,44Z"/><rect class="cls-2" x="275.93" y="40.18" width="26.42" height="2" transform="translate(89.64 254.49) rotate(-55.02)"/><path class="cls-2" d="M134.82,77.66a63.54,63.54,0,0,1-8.26-7,61.65,61.65,0,0,0-7.94-6.77l1-1.7a61.38,61.38,0,0,1,8.26,7A63.16,63.16,0,0,0,135.87,76Z"/><rect class="cls-2" x="113.15" y="80.2" width="2" height="18.9" transform="translate(-13.74 158.3) rotate(-66.37)"/><path class="cls-2" d="M120.15,235.26l-.93-1.77c2.45-1.29,5.68-4.4,8.8-7.41s6.55-6.32,9.25-7.75l.94,1.77c-2.45,1.3-5.68,4.41-8.8,7.42S122.85,233.84,120.15,235.26Z"/><path class="cls-2" d="M147,257.53l-1.4-1.44a37.55,37.55,0,0,0,6.28-8.8,39.84,39.84,0,0,1,6.61-9.23l1.4,1.43a37.84,37.84,0,0,0-6.28,8.8A39.8,39.8,0,0,1,147,257.53Z"/><path class="cls-3" d="M187.35,246.91l-6,24.61"/><path class="cls-3" d="M260,246.4l7.73,18.9"/><path class="cls-2" d="M297.75,256.53c-1.86-2-4.11-5.7-6.49-9.61-2.22-3.65-4.52-7.43-6.24-9.29l1.46-1.36c1.86,2,4.11,5.7,6.49,9.61,2.23,3.65,4.53,7.43,6.25,9.29Z"/><rect class="cls-2" x="312.88" y="219.17" width="2" height="21.4" transform="translate(-61.38 332.54) rotate(-51.52)"/><path class="cls-2" d="M350.27,212.5c-5.2-3.63-12.89-8.24-20.33-12.7S314.76,190.71,309.5,187l1.15-1.64c5.19,3.63,12.88,8.24,20.32,12.69s15.19,9.1,20.44,12.77Z"/><path class="cls-2" d="M105.85,180.84l-.71-1.87c3.11-1.19,7.44-2.7,11.62-4.15s8.5-3,11.6-4.15l.71,1.87c-3.12,1.19-7.46,2.7-11.65,4.17S108.94,179.66,105.85,180.84Z"/><rect class="cls-2" x="331.21" y="161.95" width="2" height="25.08" transform="translate(85.98 457.66) rotate(-76.7)"/><rect class="cls-2" x="198.19" y="18.45" width="2" height="26.72" transform="translate(-2.52 30.2) rotate(-8.62)"/><rect class="cls-2" x="320.05" y="74.28" width="22.2" height="2" transform="translate(26.77 225.87) rotate(-39.13)"/><text class="cls-4" transform="translate(139.99 225.67) scale(0.95 1)">生活誌</text><path class="cls-5" d="M17.15,161.67a13.22,13.22,0,0,1-8.65-3.09,21.11,21.11,0,0,1-6.15-9A39.82,39.82,0,0,1,1,127.36a38.91,38.91,0,0,1,3-8.81,22.28,22.28,0,0,1,5.13-6.93,10.54,10.54,0,0,1,7.18-2.77,10.79,10.79,0,0,1,6.93,2.07q4.57,3.6,4.62,10.42a30.38,30.38,0,0,1-.3,3.51,17.24,17.24,0,0,1-2.28,6,17.82,17.82,0,0,1-5.49,5.93,18.34,18.34,0,0,1-8.57,3c-.09,1.25-.13,2.43-.13,3.54a24.44,24.44,0,0,0,1.74,9.33q2,4.89,5.79,4.86a12.42,12.42,0,0,0,6.85-2.57q6.74-4.65,14.19-15.11a99.55,99.55,0,0,0,9.68-16.18,1.46,1.46,0,0,1,1.41-.92,1.73,1.73,0,0,1,.66.15,1.56,1.56,0,0,1,.92,1.41,1.73,1.73,0,0,1-.15.66,103.73,103.73,0,0,1-10.43,17.7,102.56,102.56,0,0,1-7.44,9.27,41.25,41.25,0,0,1-8.15,7A16.58,16.58,0,0,1,17.15,161.67Zm-5.48-25.16a14.17,14.17,0,0,0,8.46-4,15.47,15.47,0,0,0,4.42-11.2q0-5.15-2.16-5.13-2.28,0-4.45,3.06a31.34,31.34,0,0,0-3.83,7.65A51.75,51.75,0,0,0,11.67,136.51Z"/><path class="cls-5" d="M65.53,161.33a14.3,14.3,0,0,1-12.68-6.7q-4.55-6.76-4.62-18.78a37.66,37.66,0,0,1,1-8.47,39.3,39.3,0,0,1,3.07-8.81,22.08,22.08,0,0,1,5.1-6.91,10.58,10.58,0,0,1,7.15-2.75,10.88,10.88,0,0,1,8.51,3.32,10.06,10.06,0,0,1,2.73,7c0,.4,0,.81,0,1.23a1.33,1.33,0,0,1-.5,1,1.51,1.51,0,0,1-1,.36,1.44,1.44,0,0,1-1.24-.49,1.85,1.85,0,0,1-.39-1.06l0-.81A3.59,3.59,0,0,0,72,117a1.91,1.91,0,0,0-1.37-.8q-2.07,0-4.09,2.66a28.15,28.15,0,0,0-3.67,6.74,51.7,51.7,0,0,0-2.59,8.81,43.35,43.35,0,0,0-.92,8.84,24.59,24.59,0,0,0,1.73,9.28c1.34,3.3,3.27,4.93,5.8,4.91s5.27-1,8.16-3.08q8.19-5.78,15.54-16.83a63.09,63.09,0,0,0,4.79-8.32,1.42,1.42,0,0,1,1.4-.92,1.69,1.69,0,0,1,.66.15,1.49,1.49,0,0,1,.92,1.41,1.65,1.65,0,0,1-.15.65,72.09,72.09,0,0,1-11.34,17.1,74.63,74.63,0,0,1-6.75,6.87A34.17,34.17,0,0,1,73,159.44,16.63,16.63,0,0,1,65.53,161.33Z"/><path class="cls-5" d="M97,151.07a46.75,46.75,0,0,1-2.79-16.23A99,99,0,0,1,96.24,117c.23-.73.79-7.41,2-8.6.8-.8,3.31.26,5.69,1.53,4.18-5.9,11.94-8,16.63-2.93,7.83,8.43,6.79,25.91,2.6,38.37a5.33,5.33,0,0,0,2.48.68q5.85,0,12.86-9.72a61.68,61.68,0,0,0,5-8.78,1.51,1.51,0,0,1,1.41-.91,1.65,1.65,0,0,1,.65.15,1.45,1.45,0,0,1,.92,1.38,1.65,1.65,0,0,1-.15.65A59.09,59.09,0,0,1,141,138q-8.42,10.94-15.18,11a7.88,7.88,0,0,1-3.55-1,30.79,30.79,0,0,1-2.92,6.13C112.6,165.34,101,161.85,97,151.07Zm14,3.62c2.32-.15,4.46-2.89,6.1-8.24-4.46-2.75-9.31-9.95-11.44-16.29-1.91,15.48.15,19,1.14,21s2.67,3.54,4,3.53Zm6.94-11.27c3.56-14.23,2.72-28.45,1.3-31.67-3.56-8-10.8-2.53-11.94.25a1.49,1.49,0,0,1,1,1.76c0,.27-1,6-1.35,9.8C108.73,132.43,114.47,140.89,117.92,143.42Z"/><path class="cls-5" d="M179.81,169.83a5.7,5.7,0,0,1-3.66-1.11,8,8,0,0,1-2.32-2.92,15.92,15.92,0,0,1-1.29-4,80.34,80.34,0,0,1-1.27-14.59c0-2,.07-5.58.25-10.79s.76-12,1.73-20.31,1.94-15.5,2.9-21.46,1.62-9.53,1.95-10.68a1.4,1.4,0,0,1,1.4-1.12A18.7,18.7,0,0,1,185.85,84a14.74,14.74,0,0,1,5.45,3.35,1.47,1.47,0,0,1,.42,1l-.05.31q-.88,3.48-3.34,17.85t-4.56,30.24q-2.06,15.51-2,23.45c0,2.42.56,3.63,1.64,3.62q1.92,0,6.37-5.65a136.05,136.05,0,0,0,10.95-16.29q5.29-9.14,7-13a1.41,1.41,0,0,1,1.36-.92,1.73,1.73,0,0,1,.66.15,1.52,1.52,0,0,1,.92,1.41q0,1.41-7.43,14.19a165.17,165.17,0,0,1-11.75,17.41q-2.29,3-3.45,4.27Q184,169.79,179.81,169.83Z"/><path class="cls-5" d="M215.36,160.27a8.17,8.17,0,0,1-5.12-1.83q-3.7-2.81-3.78-13.76a93.27,93.27,0,0,1,.71-10.76,140.1,140.1,0,0,1,2.3-14q1.56-7.33,2.45-10.32a1.36,1.36,0,0,1,1.35-1.12,16.13,16.13,0,0,1,11.85,4.41,1.43,1.43,0,0,1,.47,1,17.21,17.21,0,0,1-.84,3q-3.51,10.78-5.23,17.21-2.86,10.73-2.82,16,0,4.09,2.05,4.08c1.82,0,3.85-1,6.09-2.92q6.27-5.3,12.52-15.24a63.33,63.33,0,0,0,3.84-6.8,1.41,1.41,0,0,1,1.36-.92,1.6,1.6,0,0,1,1.58,1.56,1.65,1.65,0,0,1-.15.65,70.32,70.32,0,0,1-6,10.15,77,77,0,0,1-13.73,15.7Q219.76,160.25,215.36,160.27Zm5.71-57.11a6,6,0,0,1-4.74-2.24,8.79,8.79,0,0,1-.08-11,6,6,0,0,1,9.42-.06,8.25,8.25,0,0,1,2,5.51,8.14,8.14,0,0,1-1.93,5.52A6,6,0,0,1,221.07,103.16Z"/><path class="cls-5" d="M255.31,159.88a10.14,10.14,0,0,1-6.48-2q-7.67-5.82-7.8-24.6,0-2.64.16-5.91.67-11.83,3-11.85,7.22,0,11.79,3.69a.75.75,0,0,1,.36.63V120a88.2,88.2,0,0,0-2.49,11.67,77.19,77.19,0,0,0-1.13,12.67c0,1.07.07,2.43.18,4.09a12.12,12.12,0,0,0,1.3,4.69,3.59,3.59,0,0,0,3.4,2.17q6,0,9.93-16.67a41.1,41.1,0,0,1-3.14-15.87,63.61,63.61,0,0,1,.59-9.94c.67-4.34,1.85-6.51,3.54-6.53a3.18,3.18,0,0,1,2.89,2.16q1.69,3.69,1.75,11.48,0,5-.34,9.61a99.79,99.79,0,0,1-1.24,10.4c2,2.25,4.08,3.37,6.24,3.36q4.1,0,8.7-5.6a63.59,63.59,0,0,0,7-10.15,1.42,1.42,0,0,1,1.36-.77,2,2,0,0,1,.65.12,1.25,1.25,0,0,1,.92,1.17,1.23,1.23,0,0,1-.15.55A58.43,58.43,0,0,1,288.4,140q-5.26,5.86-10.56,5.9a10.37,10.37,0,0,1-7.24-2.42,38.55,38.55,0,0,1-3.63,8.29Q262.23,159.83,255.31,159.88Z"/><path class="cls-5" d="M301.07,159.67a8.29,8.29,0,0,1-5.12-1.83q-3.7-2.81-3.78-13.77a95.74,95.74,0,0,1,.71-10.76,140.58,140.58,0,0,1,2.3-14q1.56-7.34,2.45-10.32a1.37,1.37,0,0,1,1.36-1.12,16.24,16.24,0,0,1,11.85,4.41,1.45,1.45,0,0,1,.46,1,17.19,17.19,0,0,1-.84,3q-3.51,10.79-5.23,17.21-2.87,10.72-2.82,16c0,2.73.7,4.08,2,4.08,1.82,0,3.85-1,6.09-2.93q6.29-5.29,12.52-15.24a63.34,63.34,0,0,0,3.84-6.79,1.39,1.39,0,0,1,1.36-.92,1.66,1.66,0,0,1,.66.14,1.5,1.5,0,0,1,.92,1.41,1.73,1.73,0,0,1-.15.66,70.85,70.85,0,0,1-6,10.14A77.11,77.11,0,0,1,310,155.82Q305.47,159.65,301.07,159.67Zm5.71-57.12a6,6,0,0,1-4.74-2.24,8.17,8.17,0,0,1-2-5.49A8.28,8.28,0,0,1,302,89.28a6,6,0,0,1,9.42-.07,8.27,8.27,0,0,1,2,5.52,8.18,8.18,0,0,1-1.93,5.52A6,6,0,0,1,306.78,102.55Z"/><path class="cls-5" d="M361.74,168.55a7,7,0,0,1-4.35-1.39q-3.81-2.7-3.89-14.92-.06-7.23,1-18.75c.53-6,.79-10.31.77-12.93a29.88,29.88,0,0,0-.28-3.87c-.18-1.29-.72-1.94-1.63-1.93q-2.07,0-4.61,4.83a79.19,79.19,0,0,0-4.87,11.75,127.06,127.06,0,0,0-3.79,13.82,50.8,50.8,0,0,0-1.44,10.72v.81a5.55,5.55,0,0,1-.27,2.17c-.18.37-.83.56-1.94.57q-9.69.07-9.85-22.36a149,149,0,0,1,1.66-22.59,1.3,1.3,0,0,1,1.2-1.22,14.56,14.56,0,0,1,2.62-.27,16.26,16.26,0,0,1,9.67,3.12,1.22,1.22,0,0,1,.62,1q-1,6.53-2,14.41a73.79,73.79,0,0,1,4.31-11.27,32.23,32.23,0,0,1,5.8-8.55,10.16,10.16,0,0,1,7.3-3.33q10.86-.08,11,15.43a103,103,0,0,1-2.14,19.25q-2.24,12.5-2.2,17.19,0,1.77.57,1.77,1.86,0,4.73-3,5.26-5.53,12.1-17,5.83-9.84,8.13-14.86a1.39,1.39,0,0,1,1.36-.92,1.65,1.65,0,0,1,.65.15,1.52,1.52,0,0,1,1,1.46q0,1.31-7.32,13.84a171.34,171.34,0,0,1-11.5,17.3q-1.46,1.94-3.35,4.12Q366,168.52,361.74,168.55Z"/><path class="cls-5" d="M395.6,182.9a10.1,10.1,0,0,1-5.54-1.45,10.6,10.6,0,0,1-5-9,11.2,11.2,0,0,1,2-6.33q3.45-5.4,11.24-10.68c2.28-1.58,4.57-3.09,6.89-4.54q.48-2.93.86-6-3.5,5.66-9.7,5.7a6.86,6.86,0,0,1-5.78-2.93A19.76,19.76,0,0,1,387.2,140,46.44,46.44,0,0,1,386.09,130a34.57,34.57,0,0,1,3.67-16.42q4-7.76,10.55-7.8a12.12,12.12,0,0,1,9.38,4.48,65.69,65.69,0,0,1,.76-6.9,1.46,1.46,0,0,1,1.41-1.16,15.92,15.92,0,0,1,11.85,4.57,1.54,1.54,0,0,1,.41,1l-.05.47a161.21,161.21,0,0,0-3.15,18.56q-1,7.41-2.27,15.57a83.41,83.41,0,0,0,13.29-10.56,46.71,46.71,0,0,0,9.52-14.4,1.39,1.39,0,0,1,1.36-1,1.85,1.85,0,0,1,.71.15,1.65,1.65,0,0,1,.77,2.14,49.51,49.51,0,0,1-10.7,15.84,98.31,98.31,0,0,1-15.67,12.12q-2.82,15.74-7.55,25Q404.69,182.84,395.6,182.9Zm-1.54-3.75q2.28,0,4.15-3.21a37.69,37.69,0,0,0,3.4-8.56q1.53-5.37,2.74-12l-1.56,1a67.93,67.93,0,0,0-9.29,6.91c-3.42,3.15-5.11,6.25-5.09,9.27a7.6,7.6,0,0,0,1.52,4.59A4.79,4.79,0,0,0,394.06,179.15Zm4-32.92q3.5,0,6.38-6a51.08,51.08,0,0,0,3.41-10.1q.75-7.26,1.32-13.22a6.77,6.77,0,0,0-2-2.7,4.13,4.13,0,0,0-2.58-1q-2.22,0-4.56,2.59a20.45,20.45,0,0,0-3.9,8,49.1,49.1,0,0,0-1.52,13.9,21.57,21.57,0,0,0,.4,4,11,11,0,0,0,1.16,3.3A2.21,2.21,0,0,0,398,146.23Z"/></g></svg>