<svg width="32" height="32" viewBox="0 0 32 32" fill="none" xmlns="http://www.w3.org/2000/svg">
<path d="M5.64107 24.5021C5.67225 24.6335 5.72969 24.7573 5.80995 24.866C5.89021 24.9747 5.99163 25.066 6.1081 25.1344C6.22457 25.2029 6.35368 25.2471 6.48767 25.2643C6.62166 25.2816 6.75775 25.2716 6.88777 25.2349C12.8489 23.589 19.1446 23.5884 25.106 25.2332C25.236 25.2698 25.372 25.2798 25.506 25.2626C25.6399 25.2453 25.769 25.2011 25.8854 25.1327C26.0018 25.0643 26.1032 24.973 26.1835 24.8644C26.2638 24.7558 26.3212 24.6321 26.3524 24.5007L29.5385 10.9611C29.5812 10.7799 29.5724 10.5903 29.5131 10.4138C29.4538 10.2372 29.3465 10.0808 29.2031 9.96198C29.0597 9.84318 28.886 9.76679 28.7015 9.74139C28.517 9.71599 28.3291 9.74261 28.159 9.81824L21.836 12.6284C21.6077 12.7299 21.3496 12.7422 21.1127 12.663C20.8757 12.5838 20.677 12.4187 20.5557 12.2003L16.8742 5.57349C16.7875 5.41759 16.6608 5.2877 16.5071 5.19726C16.3534 5.10682 16.1783 5.05913 16 5.05913C15.8217 5.05913 15.6466 5.10682 15.4929 5.19726C15.3392 5.2877 15.2124 5.41759 15.1258 5.57349L11.4443 12.2003C11.323 12.4187 11.1243 12.5838 10.8873 12.663C10.6503 12.7422 10.3923 12.7299 10.164 12.6284L3.84007 9.81781C3.66994 9.7422 3.48209 9.71558 3.29765 9.74095C3.11321 9.76632 2.93952 9.84268 2.79613 9.96142C2.65274 10.0802 2.54535 10.2366 2.48603 10.413C2.42672 10.5895 2.41785 10.779 2.46042 10.9603L5.64107 24.5021Z" stroke="black" stroke-width="1.5" stroke-linecap="round" stroke-linejoin="round"/>
<path d="M12 20.2098C14.6593 19.9301 17.3407 19.9301 20 20.2098" stroke="black" stroke-width="1.5" stroke-linecap="round" stroke-linejoin="round"/>
</svg>
