<svg width="32" height="32" viewBox="0 0 32 32" fill="none" xmlns="http://www.w3.org/2000/svg">
<path d="M16.0015 27C16.0015 27 3.50146 20 3.50146 11.5C3.50172 9.99766 4.02228 8.54179 4.97465 7.37989C5.92701 6.21799 7.25239 5.4218 8.72545 5.12667C10.1985 4.83154 11.7283 5.0557 13.0548 5.76104C14.3812 6.46637 15.4225 7.60934 16.0015 8.99562L16.0015 8.99563C16.5804 7.60935 17.6217 6.46638 18.9481 5.76104C20.2746 5.05571 21.8044 4.83155 23.2775 5.12667C24.7505 5.4218 26.0759 6.21799 27.0283 7.37989C27.9806 8.54178 28.5012 9.99766 28.5015 11.5C28.5015 20 16.0015 27 16.0015 27Z" stroke="black" stroke-width="1.5" stroke-linecap="round" stroke-linejoin="round"/>
</svg>
