<svg width="39" height="25" viewBox="0 0 39 25" fill="none" xmlns="http://www.w3.org/2000/svg">
<path d="M32.2521 6.63872L21.6686 20.7615C15.8011 13.1455 20.3229 1.9395 37 0C41.5 18.5 31.5 27 22.5159 21.2984L33.0524 7.23841C33.218 7.01743 33.1731 6.70404 32.9521 6.53844C32.7311 6.37285 32.4177 6.41774 32.2521 6.63872Z" fill="#718355"/>
<path d="M22.4199 21.4265C22.5855 21.2055 22.5406 20.8921 22.3197 20.7265C22.0987 20.5609 21.7853 20.6058 21.6197 20.8268L19.0999 24.1892C18.9343 24.4102 18.9792 24.7236 19.2002 24.8892C19.4212 25.0548 19.7345 25.0099 19.9001 24.7889L22.4199 21.4265Z" fill="#718355"/>
<path d="M5.86198 6.63872L16.4455 20.7615C22.313 13.1455 17.7912 1.9395 1.11411 0C-3.38589 18.5 6.6141 27 15.5982 21.2984L5.06175 7.23841C4.89615 7.01743 4.94104 6.70404 5.16202 6.53844C5.383 6.37285 5.69638 6.41774 5.86198 6.63872Z" fill="#B5C99A"/>
<path d="M15.6942 21.4265C15.5286 21.2055 15.5735 20.8921 15.7944 20.7265C16.0154 20.5609 16.3288 20.6058 16.4944 20.8268L19.0142 24.1892C19.1798 24.4102 19.1349 24.7236 18.9139 24.8892C18.6929 25.0548 18.3796 25.0099 18.214 24.7889L15.6942 21.4265Z" fill="#B5C99A"/>
</svg>
