<svg width="32" height="32" viewBox="0 0 32 32" fill="none" xmlns="http://www.w3.org/2000/svg">
<path d="M11.0003 29H21.0003" stroke="black" stroke-width="1.5" stroke-linecap="round" stroke-linejoin="round"/>
<path d="M9.83827 20.8764C8.6492 19.9477 7.68611 18.7616 7.02139 17.4071C6.35667 16.0527 6.00761 14.5652 6.00046 13.0564C5.97051 7.63614 10.3403 3.13038 15.7592 3.00284C17.859 2.95228 19.9215 3.56417 21.654 4.75173C23.3865 5.93928 24.7011 7.6422 25.4113 9.61893C26.1215 11.5957 26.1913 13.7458 25.6107 15.7644C25.0302 17.7831 23.8287 19.5676 22.1769 20.865C21.813 21.1469 21.5181 21.5078 21.3142 21.9205C21.1104 22.3331 21.0031 22.7867 21.0003 23.247L21.0003 24C21.0003 24.2652 20.895 24.5196 20.7074 24.7071C20.5199 24.8946 20.2655 25 20.0003 25H12.0003C11.7351 25 11.4807 24.8946 11.2932 24.7071C11.1056 24.5196 11.0003 24.2652 11.0003 24L11.0003 23.2461C10.9991 22.7888 10.8939 22.3378 10.6926 21.9273C10.4913 21.5167 10.1991 21.1573 9.83827 20.8764V20.8764Z" stroke="black" stroke-width="1.5" stroke-linecap="round" stroke-linejoin="round"/>
<path d="M17.0153 7.09801C18.2384 7.30592 19.3668 7.88848 20.2447 8.76523C21.1225 9.64199 21.7065 10.7697 21.9159 11.9926" stroke="black" stroke-width="1.5" stroke-linecap="round" stroke-linejoin="round"/>
</svg>
