<svg width="32" height="32" viewBox="0 0 32 32" fill="none" xmlns="http://www.w3.org/2000/svg">
<path d="M3 15.9492C3 19.6686 3.38427 21.8509 3.67638 22.9725C3.75447 23.2788 3.90442 23.5621 4.11382 23.799C4.32322 24.0358 4.58603 24.2193 4.88049 24.3343C9.0651 25.9424 16 25.8982 16 25.8982C16 25.8982 22.9348 25.9424 27.1195 24.3343C27.4139 24.2193 27.6767 24.0358 27.8861 23.799C28.0955 23.5622 28.2455 23.2789 28.3236 22.9725C28.6157 21.8509 29 19.6686 29 15.9492C29 12.2297 28.6157 10.0475 28.3236 8.92585C28.2455 8.61953 28.0956 8.33622 27.8862 8.0994C27.6768 7.86258 27.414 7.67907 27.1195 7.56406C22.9349 5.95596 16 6.00012 16 6.00012C16 6.00012 9.06518 5.95596 4.88053 7.56404C4.58607 7.67905 4.32325 7.86256 4.11385 8.09938C3.90446 8.3362 3.7545 8.61951 3.67641 8.92583C3.38428 10.0474 3 12.2297 3 15.9492Z" fill="#718355"/>
<path d="M20 15.9492L14 11.9492V19.9492L20 15.9492Z" fill="white"/>
</svg>
